P2
# Created by GIMP version 2.10.20 PNM plug-in
120 68
255
41
44
98
92
15
8
9
10
23
45
32
14
12
20
24
48
49
57
60
60
61
64
73
76
81
84
80
49
37
54
72
58
34
25
69
78
53
40
35
55
63
54
52
75
77
54
53
83
102
117
103
82
59
50
44
35
33
39
87
89
73
64
70
69
47
39
32
47
70
51
30
33
34
158
207
228
247
213
158
137
19
23
39
32
19
36
74
45
22
34
37
25
22
31
43
28
23
49
47
23
16
29
40
31
44
28
21
31
53
73
67
20
15
28
48
76
72
18
11
15
35
35
71
78
39
15
17
17
21
49
36
18
24
27
27
29
37
43
54
59
58
62
59
61
63
63
59
41
50
70
77
54
23
43
78
60
27
28
35
70
103
74
71
55
43
35
51
110
151
118
55
38
38
26
26
29
43
37
72
83
60
60
87
110
72
42
33
35
51
40
26
37
133
176
197
251
252
234
211
221
124
23
24
22
20
29
68
47
18
21
19
19
17
20
33
30
23
24
19
17
18
24
41
29
29
28
21
21
32
75
92
37
30
55
61
57
51
12
12
11
57
57
63
72
62
25
24
18
38
108
69
18
26
29
30
27
24
21
22
25
25
27
26
25
26
29
38
37
44
63
62
44
31
46
44
21
25
29
27
52
76
51
55
48
33
30
34
61
121
98
48
33
20
27
22
22
33
27
32
45
36
31
44
81
54
36
33
29
35
27
21
44
218
244
250
200
227
215
244
246
204
28
26
21
45
59
39
25
27
20
20
19
20
32
28
19
19
22
24
69
74
34
28
25
21
23
21
39
72
71
66
24
30
66
72
47
23
16
35
40
78
71
55
68
64
19
31
53
54
114
77
24
30
38
39
36
35
34
38
43
55
57
56
53
40
32
30
26
25
33
31
40
45
32
24
24
26
32
29
50
57
35
34
50
63
55
66
66
79
60
34
28
24
32
30
25
22
22
21
43
85
76
42
40
34
32
32
26
23
21
20
76
226
247
248
212
173
176
235
237
208
50
23
26
72
87
62
27
21
17
24
20
29
71
69
31
18
20
31
88
99
57
22
23
19
23
26
61
90
84
58
23
20
52
66
46
15
30
50
46
66
64
57
74
57
14
59
110
80
102
68
36
46
42
43
52
50
48
52
60
71
74
77
69
53
43
25
18
26
31
27
42
44
42
42
35
31
33
31
66
73
45
37
48
59
78
93
80
72
44
33
29
25
45
74
59
29
32
31
51
94
88
51
34
33
31
29
25
22
24
24
81
178
236
238
203
148
182
192
144
130
36
21
33
78
79
72
46
24
22
22
21
36
82
81
48
21
20
31
81
83
68
28
23
21
20
19
55
81
74
55
19
16
22
44
29
9
29
49
41
65
65
63
78
52
15
43
78
55
84
62
43
49
22
18
19
21
25
30
29
26
26
28
51
84
68
35
30
32
27
30
59
68
61
45
38
28
28
41
85
84
65
59
51
48
80
92
88
80
60
38
35
30
65
140
149
109
35
40
46
68
69
47
24
23
32
28
26
24
26
43
69
103
202
236
231
178
224
215
168
101
46
22
54
85
65
74
80
37
24
23
26
28
42
45
36
24
20
21
62
72
70
47
26
24
21
16
37
73
61
40
19
22
37
46
30
16
41
70
43
61
63
63
59
40
15
16
19
24
57
46
47
52
35
39
42
47
50
53
56
57
57
58
77
117
90
29
23
26
29
34
71
72
55
37
28
24
24
50
90
91
75
56
51
57
87
101
97
93
84
55
38
112
168
200
168
125
84
62
34
29
31
30
23
22
36
32
28
28
26
59
63
90
162
213
211
178
198
190
155
123
91
39
50
77
64
51
50
31
29
29
21
32
52
41
30
39
46
36
55
54
50
45
56
78
51
17
37
86
59
20
17
39
50
36
24
19
47
72
36
37
32
32
40
25
15
17
23
23
29
36
53
67
73
81
85
92
99
100
103
104
103
98
90
97
65
17
18
20
28
45
61
46
31
32
27
26
23
56
86
67
42
40
50
68
103
114
105
110
111
100
63
160
150
111
55
57
68
60
35
25
22
23
21
24
55
54
22
30
39
62
48
44
138
143
125
58
103
100
117
138
144
64
26
32
42
27
20
25
43
54
31
27
39
28
20
51
69
47
55
49
44
40
74
113
91
31
42
88
48
14
19
34
34
20
17
17
46
62
24
40
41
50
105
67
25
28
32
32
33
24
21
27
33
35
36
38
40
38
41
37
35
45
68
79
34
21
21
23
36
41
41
30
27
26
27
24
28
35
42
36
39
39
46
82
118
118
109
106
114
139
180
149
97
40
55
60
49
47
34
27
22
22
24
23
57
62
24
32
40
59
28
22
36
82
58
42
53
98
124
135
138
57
26
26
26
24
18
25
33
33
25
23
24
52
91
78
56
41
54
46
41
73
152
170
120
30
60
54
21
20
61
72
39
16
14
18
30
31
53
38
48
65
125
82
20
25
41
37
35
29
33
32
36
41
45
50
52
70
63
48
43
26
22
35
59
62
41
37
38
34
32
30
30
26
26
22
25
29
58
74
56
44
53
91
117
117
109
134
129
168
174
111
41
27
54
61
47
30
30
34
37
55
51
23
43
50
30
33
52
55
27
35
55
82
78
61
59
92
101
101
73
26
23
23
24
20
23
53
57
37
26
20
25
91
133
118
66
40
56
46
35
74
122
134
118
39
77
35
18
28
76
80
54
16
24
21
24
45
85
51
103
90
122
82
34
46
47
55
62
74
81
80
83
89
92
96
94
108
96
93
72
31
21
45
96
95
61
39
38
26
24
24
28
30
25
30
26
37
75
83
69
50
59
89
108
109
99
102
126
136
107
46
15
48
94
92
47
25
40
44
64
107
90
40
43
49
42
46
77
84
47
62
84
85
67
51
56
91
90
75
35
17
20
27
33
29
32
80
87
56
23
20
22
77
108
100
60
32
50
44
36
59
97
91
72
43
46
20
18
26
83
78
49
24
23
28
25
51
82
60
104
74
113
82
49
43
27
30
32
37
39
41
40
40
39
40
69
94
85
60
36
25
22
46
85
82
59
28
27
27
27
20
34
58
49
74
62
41
73
82
70
60
65
98
102
98
96
94
83
68
35
11
14
58
115
98
44
27
40
53
76
113
99
52
32
43
44
43
85
78
50
63
86
80
61
48
73
93
90
74
37
24
22
31
54
61
62
77
72
63
33
20
20
59
81
73
42
32
40
41
38
36
63
56
32
50
28
18
18
37
90
79
41
35
22
29
34
68
59
19
32
32
89
68
45
43
28
28
30
38
40
41
43
45
48
41
52
77
63
39
30
28
24
34
62
61
39
31
34
28
26
35
66
89
67
81
78
55
87
97
75
75
88
93
87
88
92
73
36
21
24
23
30
58
94
93
68
46
67
59
83
96
69
34
30
54
59
67
83
59
34
38
66
85
79
55
92
113
88
53
32
36
45
29
38
70
70
58
53
72
51
20
22
49
70
56
27
26
40
38
36
31
33
36
29
55
47
33
46
63
85
58
33
43
37
21
39
58
57
16
21
23
39
40
52
64
76
82
90
95
99
102
104
105
104
63
33
43
33
29
30
33
30
31
30
24
29
32
30
30
62
102
107
84
52
71
72
67
88
75
67
71
94
114
95
86
81
51
42
145
180
147
44
64
71
62
47
46
94
97
86
52
31
26
30
53
83
88
69
37
25
25
45
95
105
77
111
118
63
43
42
39
68
55
37
46
47
59
44
43
33
27
26
36
42
29
23
26
38
42
49
51
45
57
64
66
63
65
71
75
90
80
60
54
47
26
27
25
27
32
34
31
27
27
28
32
46
47
50
58
54
51
51
52
53
40
30
24
25
33
30
31
32
31
28
28
43
38
26
39
78
103
93
63
48
60
60
62
61
50
63
62
72
104
94
74
62
49
116
196
166
156
52
73
59
34
27
41
66
65
53
29
25
24
32
60
74
50
39
31
28
24
25
70
78
74
124
120
70
78
89
54
55
61
37
36
46
48
28
25
23
27
28
22
25
27
27
21
24
39
65
59
49
65
67
57
57
76
83
81
115
111
105
73
48
19
24
25
35
33
33
33
22
18
19
21
26
28
27
42
38
30
33
33
31
32
29
27
25
25
23
27
26
27
27
59
96
84
42
49
80
85
67
47
46
46
43
37
38
51
89
101
77
82
85
68
59
55
73
169
165
140
62
40
32
24
51
88
84
38
23
26
25
23
55
102
103
59
27
28
26
29
27
43
51
69
104
108
72
89
96
71
52
52
40
48
40
30
23
21
24
24
22
24
47
63
40
21
18
35
66
50
46
65
75
91
67
79
71
67
101
95
96
74
34
17
23
20
62
31
35
44
47
57
70
68
70
73
60
48
49
75
87
61
30
31
30
34
33
23
20
25
27
30
30
68
105
89
49
57
89
81
60
68
50
43
48
57
48
50
91
104
81
61
63
58
60
91
87
135
114
102
88
21
23
33
77
107
91
35
18
26
28
26
74
110
92
59
33
28
28
57
53
40
40
57
82
90
75
92
92
82
65
57
61
94
68
32
21
20
28
23
24
33
63
73
55
30
23
44
65
47
40
59
84
102
80
66
54
60
88
82
73
47
27
11
16
22
66
21
28
34
36
50
56
57
59
59
66
71
66
64
65
51
37
51
49
63
65
37
24
27
37
53
43
67
93
77
57
73
87
66
69
86
54
41
51
57
48
41
56
64
51
46
48
46
70
108
97
128
114
93
98
41
32
36
93
113
85
35
22
24
25
30
78
109
92
58
30
24
34
85
86
51
37
60
85
67
47
71
79
61
43
43
67
91
83
43
32
31
32
24
20
35
81
88
63
28
30
48
56
48
47
59
84
91
68
41
50
64
73
68
45
27
39
28
25
25
59
16
19
20
21
23
28
29
31
33
35
48
40
28
37
57
82
84
77
81
69
42
27
25
29
34
32
59
70
46
33
57
72
51
56
71
42
34
49
41
43
39
42
40
42
46
50
49
76
100
88
130
115
104
108
65
43
72
108
108
84
60
47
30
31
44
81
102
79
45
25
25
40
83
71
38
25
57
85
60
40
52
54
46
31
35
56
73
56
37
43
78
122
118
73
36
91
110
64
24
69
114
81
66
51
42
57
68
44
24
40
44
41
35
19
17
26
31
27
22
37
51
69
77
81
87
91
94
83
41
26
26
26
24
37
110
131
74
56
67
44
25
31
35
54
40
34
40
43
44
41
39
49
48
40
41
33
37
40
36
40
38
37
38
43
40
55
70
82
86
74
129
113
107
106
102
51
97
129
104
99
88
72
69
40
38
44
54
46
38
35
52
89
79
39
24
24
42
55
49
39
38
33
30
39
54
77
71
44
31
45
83
177
194
145
61
97
110
40
21
92
157
125
75
34
26
39
54
31
19
25
24
28
24
16
16
19
21
29
22
25
54
71
77
78
83
82
81
70
32
27
25
27
30
37
103
132
75
39
60
57
35
24
28
46
37
33
39
73
100
89
46
38
42
38
37
36
37
38
42
40
38
42
44
65
64
55
80
80
74
72
136
120
109
97
105
63
98
111
85
89
91
53
60
43
39
53
55
54
45
34
64
90
52
23
23
23
22
32
36
35
37
38
35
49
82
97
93
47
31
66
80
170
188
149
97
106
83
21
21
65
99
89
70
26
21
23
34
27
32
27
21
21
25
19
19
18
18
24
22
18
26
25
26
29
34
25
29
30
28
26
34
40
46
42
80
99
53
65
110
105
51
27
24
24
30
33
42
88
113
100
57
36
36
37
35
34
45
48
39
34
34
37
58
112
114
79
77
71
74
79
130
113
97
85
95
64
96
90
75
74
71
42
41
39
35
51
68
67
55
32
25
36
28
23
24
27
30
31
33
41
69
84
66
60
85
68
88
69
42
73
59
114
139
119
100
66
37
18
41
105
107
81
48
19
20
24
33
32
41
33
25
21
27
19
21
19
21
24
19
14
80
81
77
58
72
54
60
45
27
28
30
45
48
47
50
62
36
69
100
90
51
29
22
26
31
35
40
86
106
90
55
37
37
34
33
39
80
90
54
28
29
27
64
109
102
91
78
69
74
93
125
113
97
95
93
35
36
34
71
103
85
45
29
34
35
37
66
79
67
39
22
20
21
23
34
69
67
39
29
43
87
105
85
73
76
36
51
72
63
74
47
49
98
105
83
41
25
21
56
112
105
86
40
19
18
35
29
44
94
79
34
21
20
19
19
18
22
25
17
13
74
75
70
74
89
73
67
38
23
20
27
46
74
72
45
41
33
52
77
67
47
46
39
30
41
43
39
64
81
59
36
36
32
34
33
45
89
100
60
32
29
30
63
100
96
90
66
62
68
105
119
112
102
82
81
25
20
22
80
114
101
62
33
36
37
35
65
95
81
44
20
20
21
19
44
95
84
48
46
58
79
92
75
58
54
23
22
49
67
64
38
39
82
116
87
60
24
20
43
95
90
63
29
22
18
26
24
48
101
85
38
22
17
16
17
24
26
22
22
21
27
29
40
56
69
69
71
55
55
40
27
43
81
84
54
51
75
70
77
55
68
90
79
78
77
53
33
36
36
25
24
28
29
28
31
34
69
86
54
26
53
100
95
107
119
85
56
41
37
75
113
111
96
74
81
51
27
22
69
99
82
58
42
49
40
34
40
62
50
31
36
40
25
22
47
87
70
46
73
68
56
62
38
26
29
29
51
64
64
60
109
105
70
107
86
104
72
32
31
54
53
32
28
28
38
58
49
67
95
72
30
26
23
19
17
33
36
32
40
78
91
85
69
65
64
82
93
76
73
86
44
50
94
82
61
61
104
101
110
88
92
100
94
111
88
40
27
26
28
24
22
27
41
40
40
52
61
47
29
26
125
179
139
125
137
112
101
57
25
45
111
109
110
101
94
112
92
42
50
66
48
34
44
80
71
39
32
27
23
22
38
56
52
23
37
69
49
57
100
65
35
33
24
23
26
28
67
104
95
92
151
121
59
104
109
131
104
57
41
31
31
29
28
26
41
49
63
89
73
49
24
28
45
39
22
72
86
63
31
79
97
95
93
85
83
90
85
73
71
98
53
45
77
54
31
81
116
110
108
107
105
102
96
83
54
30
34
47
46
28
24
23
55
54
56
88
83
36
32
88
169
173
140
149
149
129
113
74
29
16
100
104
111
107
102
123
117
57
44
54
55
52
40
64
70
38
32
29
26
29
37
42
55
31
29
69
50
43
60
36
25
27
26
24
39
49
48
93
106
124
161
121
87
112
96
106
95
47
61
32
28
26
24
22
34
30
81
118
58
71
71
30
36
52
20
75
102
50
20
42
42
82
95
88
85
85
85
81
68
90
49
36
45
34
42
97
114
119
111
115
100
101
111
89
42
29
38
82
84
47
27
23
50
47
70
105
91
44
39
146
179
172
175
172
136
110
104
75
33
52
80
108
117
96
88
152
122
51
44
64
72
70
45
36
34
28
29
30
28
46
66
52
36
30
25
44
48
69
51
27
23
26
27
28
70
90
72
83
110
138
154
137
122
112
87
71
69
47
62
31
56
79
59
29
22
18
54
103
90
134
133
82
26
36
23
88
93
31
51
92
87
93
86
79
77
81
87
75
63
77
42
76
87
75
75
98
92
107
92
93
89
107
106
90
46
34
53
109
111
79
33
22
51
45
87
109
89
45
56
157
179
173
144
104
64
63
60
78
58
68
81
113
100
115
109
145
172
40
36
61
89
90
51
27
23
24
28
29
30
74
102
77
41
22
26
29
68
98
85
56
27
28
21
24
74
100
91
87
109
133
148
140
132
116
100
86
72
61
83
40
91
126
111
53
25
18
38
90
94
120
110
106
40
32
26
67
54
21
82
119
92
89
72
81
79
82
87
64
57
53
28
76
92
75
66
81
58
88
91
96
102
107
91
87
66
42
50
93
98
74
61
38
41
47
75
83
66
36
48
138
176
157
77
34
34
44
31
88
63
39
107
133
193
187
170
168
187
209
157
124
104
104
65
24
24
26
29
29
29
67
96
70
33
22
22
44
88
97
96
73
32
22
21
30
69
87
80
75
100
121
143
136
116
101
94
85
78
66
64
52
110
130
120
70
29
25
31
61
69
99
87
76
44
30
25
25
21
24
88
105
60
77
79
80
68
62
74
94
111
97
48
54
67
45
34
58
62
87
101
101
95
79
74
82
87
62
66
92
92
90
96
88
83
68
59
81
78
49
26
75
128
107
39
24
33
45
29
93
62
71
172
181
191
180
170
157
194
227
228
186
94
122
116
23
44
66
37
34
33
42
52
30
24
22
22
57
96
88
67
46
27
29
27
32
43
45
55
62
65
92
125
115
89
72
73
70
74
73
54
50
90
110
100
59
32
33
39
36
55
81
61
34
36
34
39
26
27
30
76
96
35
55
91
85
75
59
127
187
201
157
57
45
33
23
29
44
80
105
100
86
73
82
107
80
62
63
73
89
81
102
103
103
111
85
66
119
102
45
24
36
105
84
31
22
37
53
32
134
176
174
177
207
178
175
159
145
199
151
161
151
11
98
199
70
87
153
99
41
32
29
21
17
24
24
27
35
49
55
32
23
23
42
57
41
36
33
52
51
33
49
91
98
102
95
97
86
92
71
54
43
50
84
72
36
29
37
65
52
38
37
29
25
25
29
68
72
32
32
71
79
37
43
81
96
116
90
152
211
214
142
37
39
28
37
46
36
66
113
99
61
57
88
104
86
62
57
64
76
47
94
97
85
76
58
60
128
99
42
22
28
62
48
22
19
25
37
128
186
150
211
175
150
194
193
172
146
130
73
185
172
18
129
227
179
65
133
118
44
28
25
22
24
23
22
24
26
34
65
105
76
32
30
54
48
39
43
68
75
48
38
91
112
114
110
104
89
73
78
66
34
30
32
30
28
31
40
62
67
37
32
36
29
24
25
53
93
52
35
42
51
77
60
67
106
132
94
122
180
185
100
33
30
33
79
90
57
63
103
72
50
49
72
88
69
44
47
64
78
58
96
76
79
70
49
71
143
101
32
19
36
49
41
24
20
21
31
190
27
60
189
150
112
194
192
175
165
158
38
192
179
61
134
224
205
83
78
73
33
25
24
23
28
23
24
26
29
31
93
142
117
49
19
24
30
31
62
106
113
78
37
73
103
108
99
89
76
88
116
98
46
23
18
21
28
37
72
74
50
29
45
40
29
25
25
34
67
44
36
34
38
114
83
107
156
141
146
113
111
109
50
26
27
40
99
115
92
88
123
80
53
43
39
46
35
32
34
47
55
69
94
64
98
94
55
75
152
122
61
24
49
62
50
36
20
44
118
238
94
32
149
154
129
188
185
180
162
179
118
155
153
76
60
215
207
88
73
37
19
22
27
40
69
65
35
27
27
29
92
126
112
62
24
30
30
43
101
116
108
82
36
61
88
99
97
87
72
90
111
94
57
28
18
23
32
53
115
118
76
38
57
55
29
34
70
65
42
33
38
39
53
107
96
108
136
105
125
98
98
72
38
24
25
51
91
98
83
85
125
90
41
37
35
32
39
63
67
38
27
66
81
63
123
117
66
41
113
97
55
30
69
96
79
64
40
67
177
236
166
16
159
205
165
191
182
181
165
178
173
171
154
16
34
205
181
89
65
26
22
22
25
70
114
102
51
23
26
29
81
113
89
40
39
65
51
47
113
116
88
52
28
53
86
99
95
80
60
61
79
64
39
37
52
27
27
53
120
119
95
40
51
56
34
50
101
109
63
43
61
40
56
95
112
82
88
73
65
99
112
81
44
53
64
62
81
76
53
74
87
67
37
32
29
50
71
54
50
55
48
53
56
63
125
105
56
51
87
69
23
25
72
96
100
92
55
51
191
225
131
8
175
163
191
193
187
180
167
147
144
147
129
24
145
181
115
89
55
35
38
26
23
71
107
88
84
67
59
35
47
60
39
24
29
46
49
38
93
98
54
27
23
30
54
73
76
60
71
96
83
72
38
70
101
32
34
47
84
95
93
78
55
49
32
65
86
75
70
67
74
45
50
70
61
37
66
86
65
90
85
44
31
64
85
57
47
35
33
39
43
42
35
28
31
42
8
5
6
6
22
42
36
51
89
64
37
68
94
74
32
39
74
97
91
54
35
34
187
203
76
6
156
207
190
200
197
168
100
52
74
155
144
139
220
157
107
65
33
30
33
31
28
50
95
112
57
58
80
56
36
26
22
21
21
28
46
30
38
39
23
21
21
21
42
79
67
48
118
149
109
70
33
39
60
49
87
79
55
75
83
102
78
37
26
30
32
34
57
59
66
36
47
65
29
26
47
64
40
43
33
29
42
38
63
43
30
30
32
35
69
79
49
30
29
12
5
5
4
4
9
25
47
97
88
43
41
44
78
80
39
62
110
103
60
40
34
147
184
192
53
8
152
210
202
200
145
62
48
59
59
163
229
231
217
152
135
29
26
22
28
32
34
69
185
153
46
19
35
80
68
35
26
23
21
22
28
25
19
25
24
21
24
24
47
84
61
62
147
159
125
69
33
33
31
76
107
76
85
97
88
92
79
44
24
15
19
28
55
35
33
30
35
39
25
20
29
36
34
28
59
122
130
84
43
38
29
25
26
50
111
119
71
24
22
10
6
6
4
4
10
29
93
139
90
41
75
77
69
64
47
81
88
75
69
42
34
160
188
202
90
7
133
217
189
114
61
50
63
55
53
112
224
228
225
226
183
30
31
20
22
68
158
165
167
116
47
32
22
27
50
52
26
23
22
26
26
23
20
32
29
28
21
36
81
92
53
58
118
168
149
60
35
32
37
71
83
59
94
93
88
89
71
31
20
15
16
31
41
28
23
25
19
76
54
25
30
37
29
39
99
142
141
106
35
29
29
26
26
60
109
102
69
27
26
13
8
6
4
5
15
37
89
137
95
74
114
105
105
95
87
102
68
84
89
52
34
145
188
208
125
5
72
160
76
64
55
60
59
54
54
69
203
220
224
197
119
37
31
19
24
121
182
187
179
90
39
20
14
23
33
53
25
21
26
57
57
48
25
21
24
22
19
63
117
118
67
51
104
165
146
39
31
29
55
55
31
63
96
91
80
85
65
27
18
18
24
67
55
26
26
19
14
99
75
32
37
54
57
85
110
113
112
98
64
41
31
28
41
75
88
83
53
48
41
12
6
5
4
5
16
33
81
134
83
101
122
108
113
114
114
109
59
78
93
60
33
136
170
217
145
52
35
154
50
52
62
55
46
53
51
51
202
216
226
129
37
43
31
21
53
168
191
209
162
98
50
22
13
13
16
42
24
18
73
150
125
113
71
32
22
19
20
78
128
118
82
48
128
172
141
38
28
37
96
84
36
70
85
80
76
83
78
39
19
19
36
102
84
25
18
15
18
87
64
34
59
103
118
158
152
112
101
91
88
72
47
31
40
76
81
62
40
27
26
20
9
11
11
11
19
22
49
81
85
108
97
87
83
101
112
99
64
37
49
33
32
210
232
216
180
129
41
124
44
51
48
54
56
46
41
64
197
231
203
62
69
89
42
29
127
181
188
179
157
133
39
17
4
6
12
25
18
16
157
200
181
159
147
36
26
22
26
63
113
98
54
41
102
130
110
45
38
48
103
83
44
76
87
87
76
98
114
61
30
26
32
97
74
21
19
25
39
84
44
34
61
113
125
132
124
90
78
61
69
76
93
61
33
68
76
36
21
19
21
21
20
25
29
21
42
43
45
70
112
92
59
56
72
97
99
74
48
33
28
31
36
207
227
223
218
191
216
165
48
54
50
42
36
41
45
121
174
191
142
55
63
73
31
53
132
166
164
158
184
158
27
8
4
4
12
24
27
36
144
184
137
141
125
56
44
31
37
31
68
49
30
35
49
60
86
79
57
33
51
47
44
71
79
81
66
110
118
82
78
64
38
51
46
20
20
40
89
48
29
32
35
83
118
91
90
99
76
85
75
71
104
68
29
50
41
23
24
21
25
37
43
122
176
207
230
221
122
60
88
66
44
45
81
94
67
44
36
37
36
35
43
200
211
221
230
227
218
141
74
54
56
53
52
52
45
89
95
26
32
41
39
42
27
37
66
114
124
168
136
77
9
6
4
11
16
18
38
65
151
157
137
151
157
67
61
39
36
28
36
32
29
31
51
49
76
74
28
23
25
26
24
35
62
99
72
67
142
184
157
87
30
17
19
25
48
38
81
33
31
42
53
79
117
125
140
126
122
184
142
77
84
46
22
23
25
33
34
22
19
70
222
247
235
205
159
97
73
36
46
62
162
174
150
97
45
34
33
35
37
32
26
177
205
205
179
143
100
93
65
53
38
32
24
29
49
48
94
51
64
73
146
185
174
155
163
161
168
159
120
68
10
5
21
40
36
29
52
102
184
139
168
174
159
118
70
42
38
31
57
66
40
29
33
35
45
32
26
38
63
39
19
28
82
104
68
31
120
173
145
75
23
16
17
96
135
96
63
34
38
62
69
74
137
173
128
114
157
180
133
83
58
30
18
27
46
77
72
36
19
131
170
116
52
8
9
28
82
121
118
32
120
245
248
200
56
30
56
51
34
39
29
132
122
75
74
77
77
62
46
41
58
64
65
97
65
70
93
117
134
153
168
137
120
103
134
165
180
158
130
84
24
16
61
106
96
51
59
77
154
144
138
144
151
146
52
34
34
43
97
103
62
30
28
24
26
22
33
86
113
84
37
50
97
103
100
109
102
109
75
45
27
18
26
109
129
107
72
35
45
83
88
66
120
150
107
115
127
117
101
82
46
22
16
26
57
108
99
71
78
43
9
42
97
123
144
174
181
189
189
129
17
215
245
246
165
47
66
41
53
63
55
54
69
69
68
69
63
38
41
49
53
57
86
102
90
101
123
138
162
109
133
73
83
72
58
102
164
176
142
100
79
26
79
113
100
62
58
63
161
150
149
143
135
76
28
30
37
51
108
108
73
34
24
26
27
22
32
108
119
105
69
75
102
140
176
179
131
109
97
70
93
106
102
111
99
91
79
40
89
130
116
74
95
103
90
126
125
106
86
81
69
45
24
26
55
123
201
126
10
115
152
190
162
178
190
184
182
169
149
114
8
168
243
190
234
148
115
133
65
54
63
69
69
68
68
69
47
39
48
61
60
77
101
94
101
125
114
167
133
120
111
106
69
52
48
67
98
114
121
106
79
48
76
99
87
72
72
62
124
143
126
121
139
76
51
32
29
40
84
84
54
32
46
107
113
48
69
108
105
114
95
87
98
129
147
146
108
96
92
96
142
175
175
150
96
96
117
96
143
142
101
84
129
127
107
146
131
87
66
67
70
92
77
60
130
229
247
204
8
103
195
157
176
164
116
90
80
10
29
42
10
101
238
186
184
233
192
136
63
68
70
69
66
65
68
61
51
61
65
63
66
106
96
89
119
131
112
137
133
128
92
106
94
49
41
54
72
77
84
94
98
79
47
59
54
56
68
79
130
99
96
135
152
123
130
102
66
72
47
34
29
36
78
134
143
83
120
110
101
113
56
57
83
105
148
124
51
51
70
82
91
141
167
139
75
82
133
134
159
122
67
91
128
124
126
133
92
68
77
104
89
95
110
107
235
248
247
242
86
15
119
91
48
11
7
7
111
205
232
232
188
32
220
212
118
237
235
127
66
69
69
68
68
67
63
52
62
67
65
45
78
102
77
105
120
125
117
129
108
98
93
86
106
75
53
63
69
72
90
103
110
100
36
36
42
51
72
119
165
179
157
156
128
113
90
113
88
112
100
40
38
30
47
103
124
90
138
76
103
94
38
35
79
121
135
111
46
62
88
94
107
138
141
122
94
88
106
125
119
74
59
91
114
96
112
121
84
83
98
122
106
99
114
132
244
243
243
244
169
8
43
137
194
211
155
7
199
220
124
155
242
69
191
214
54
159
242
220
93
66
67
67
66
65
55
49
68
67
49
49
100
96
91
111
125
132
117
90
125
128
90
89
81
92
89
88
91
79
82
98
139
145
42
90
127
123
105
107
135
147
137
120
94
47
40
46
63
99
131
126
56
34
64
103
88
118
134
63
121
74
34
26
57
89
91
85
62
69
111
125
118
132
140
130
117
98
95
125
99
62
58
83
99
77
99
120
104
92
83
99
81
95
97
194
245
185
219
240
205
13
206
236
194
186
235
56
171
222
13
88
243
120
161
199
45
23
200
244
206
55
47
50
58
62
44
57
59
56
46
63
120
93
102
134
109
107
95
107
117
136
109
97
77
70
76
104
100
96
98
92
129
118
90
132
119
124
172
135
108
118
92
85
92
39
85
107
66
110
111
104
115
85
81
117
94
131
127
81
126
56
34
28
46
61
43
35
56
77
130
123
117
137
139
123
108
78
97
147
99
58
57
68
81
54
54
75
93
81
72
75
60
60
48
226
245
132
143
240
231
61
219
194
10
91
241
130
119
243
82
32
226
159
125
199
69
9
82
230
244
159
20
30
38
51
18
48
58
60
53
69
117
97
108
95
94
87
93
107
90
87
77
60
70
49
61
79
134
175
142
67
24
49
135
130
117
134
189
141
107
106
73
61
72
122
172
171
168
139
79
120
126
144
149
127
88
119
124
90
130
65
41
33
49
54
31
25
47
73
113
107
117
127
108
88
79
71
108
141
103
52
47
60
73
49
45
50
63
59
58
55
49
46
80
241
244
88
55
224
234
139
174
226
28
24
225
181
55
241
147
6
198
185
83
201
121
8
12
161
242
236
107
12
29
28
8
26
42
68
84
100
107
95
83
97
71
57
63
56
48
44
47
17
39
39
29
69
126
139
54
46
78
92
132
121
113
120
159
97
103
96
78
71
59
110
123
145
143
176
130
97
109
104
110
131
118
98
106
90
120
69
56
70
91
92
74
52
75
97
108
141
166
116
100
69
62
95
120
98
88
55
44
53
54
43
44
49
52
51
47
47
43
46
154
245
231
34
5
182
227
186
112
240
99
5
197
214
8
188
144
7
186
196
30
195
130
50
10
111
238
243
222
149
119
93
61
65
80
88
87
90
91
86
81
83
71
66
51
35
35
45
28
8
7
31
33
34
55
24
52
109
116
145
115
108
78
175
226
148
109
70
102
110
72
82
68
60
39
65
56
40
58
67
80
94
112
102
63
69
89
80
133
170
185
188
180
146
116
110
110
150
179
102
99
97
94
131
117
68
62
45
44
45
44
41
44
54
57
61
47
50
48
47
210
246
192
11
6
169
225
215
48
222
155
6
173
235
32
6
5
87
225
160
7
183
138
87
105
224
236
222
240
242
240
224
159
100
71
86
89
84
78
78
77
65
54
33
25
39
34
49
45
14
8
7
8
9
9
57
109
117
136
155
101
105
74
120
145
139
128
105
122
122
65
59
45
11
9
9
22
21
16
29
40
54
83
102
79
52
62
130
194
210
212
214
211
184
127
103
106
143
175
99
96
111
125
133
105
56
51
44
45
46
46
42
45
57
54
49
42
47
48
67
221
247
129
8
34
171
227
228
93
103
55
25
211
219
11
6
75
216
213
53
5
168
160
124
144
186
191
195
210
235
226
191
91
91
77
76
70
67
60
59
115
148
112
98
20
28
14
23
22
14
10
9
8
7
52
113
112
111
145
138
99
108
66
99
117
122
144
170
162
154
106
82
34
8
8
10
39
36
27
20
15
18
33
69
101
57
83
159
206
211
213
213
207
177
116
101
106
142
171
98
102
120
118
136
113
47
45
44
46
47
46
43
41
45
39
39
42
44
56
128
228
234
52
5
105
164
218
228
140
4
8
171
239
132
5
15
201
221
81
5
5
149
182
143
163
144
154
169
155
173
213
217
148
70
62
57
50
80
140
212
237
228
219
223
115
51
9
13
9
9
7
6
11
58
90
110
98
100
141
128
97
95
38
90
94
100
141
172
209
198
100
90
66
55
24
29
46
46
47
40
36
19
15
19
46
56
95
166
204
210
212
204
194
161
113
98
113
144
169
94
109
131
109
125
115
45
46
44
46
46
45
44
42
41
40
35
36
38
63
203
245
207
9
6
129
108
199
228
165
5
128
240
163
7
7
74
234
136
8
5
5
133
196
152
186
177
135
150
130
126
203
177
119
96
70
99
110
128
157
217
220
219
214
143
77
26
7
7
7
6
7
29
64
78
82
80
63
98
118
114
93
108
64
125
142
117
115
169
141
164
160
165
169
88
80
82
37
44
49
43
42
42
40
37
40
62
92
167
204
210
208
194
183
135
104
91
111
142
167
97
109
108
89
108
114
60
81
96
100
63
46
45
45
48
45
35
32
45
155
242
243
203
104
36
136
91
182
224
181
21
212
208
21
7
7
76
237
130
82
103
102
105
204
155
178
118
68
120
111
109
161
214
182
122
97
132
117
133
160
215
228
228
102
24
11
6
5
8
8
24
116
113
73
79
64
50
60
117
102
82
88
132
80
169
149
215
218
201
197
206
193
179
145
88
92
116
56
57
64
61
67
57
50
46
51
78
100
171
204
209
204
193
173
111
89
92
107
141
167
96
85
63
55
85
115
96
142
165
151
73
46
49
56
57
50
41
35
144
240
238
240
238
220
188
166
88
158
216
202
87
233
169
7
56
119
106
219
233
225
219
190
63
208
149
161
111
63
111
97
102
131
203
184
139
138
144
120
137
187
225
230
211
23
5
7
8
15
30
61
134
192
118
60
65
52
45
86
125
110
92
91
116
85
145
169
186
183
165
133
132
119
95
85
93
100
121
113
143
157
148
108
78
49
57
95
133
143
182
203
205
201
193
160
99
89
94
99
142
166
90
71
60
57
85
110
109
160
167
125
63
61
59
57
57
47
46
45
129
217
241
238
220
196
180
167
97
127
207
217
134
217
198
175
207
220
168
157
164
127
81
49
27
202
174
208
220
194
154
80
89
105
173
186
182
182
165
138
118
154
176
234
154
54
14
33
56
80
101
104
146
191
117
61
67
61
51
98
128
123
95
85
91
73
66
107
74
82
73
68
88
91
88
87
81
100
120
152
173
176
171
144
114
57
68
141
178
180
191
198
200
197
186
151
98
92
92
91
145
167
86
76
82
80
97
98
69
111
157
113
78
78
65
59
61
54
54
65
174
233
238
232
206
160
144
146
92
105
194
226
158
139
154
138
112
76
29
5
9
6
3
5
11
192
218
237
242
177
167
107
67
86
145
175
168
168
163
162
165
184
185
192
186
101
85
110
116
118
105
97
137
172
112
75
81
78
67
102
128
129
116
90
89
67
62
80
58
44
68
65
76
81
75
67
88
103
118
160
163
164
164
155
136
81
86
148
167
178
178
178
180
174
164
146
111
109
97
95
141
160
81
76
87
87
91
94
45
71
136
116
87
79
67
65
77
74
68
154
216
213
227
224
183
123
157
140
86
91
190
233
160
9
3
4
7
8
6
7
9
6
4
5
7
184
216
225
232
182
144
83
46
58
120
170
131
123
143
178
176
172
183
153
188
148
139
141
137
124
102
95
127
147
101
84
84
83
83
87
119
119
115
105
93
67
54
54
38
30
53
82
86
62
70
87
106
104
119
150
152
149
148
145
141
106
96
136
150
151
150
144
137
133
125
128
117
106
93
85
113
133
85
80
86
87
90
93
32
47
115
121
90
81
72
79
101
100
85
201
193
180
184
173
117
68
133
137
82
86
199
235
154
2
4
6
7
6
5
8
8
5
5
4
5
182
215
197
198
163
74
26
76
53
85
169
107
97
145
174
172
173
178
175
156
132
144
143
140
128
103
128
159
163
102
82
84
82
98
135
143
117
115
118
116
89
36
28
28
94
108
85
85
90
92
102
94
103
118
147
152
150
147
147
148
127
108
126
136
136
131
123
123
126
106
98
102
100
93
79
104
126
91
82
87
89
92
99
39
41
78
149
148
104
91
86
103
126
181
198
141
92
95
64
44
44
100
126
84
91
213
224
158
5
8
8
7
5
6
8
8
5
5
4
5
181
215
142
132
117
131
190
172
74
77
160
110
91
139
142
177
180
181
177
115
91
128
135
134
126
126
157
160
159
129
97
98
99
141
174
171
149
118
122
112
92
69
29
44
92
76
102
98
82
71
91
108
92
118
145
150
149
148
145
147
140
117
116
117
120
124
127
129
124
98
89
94
99
92
78
106
128
89
76
84
88
94
100
68
40
84
230
240
134
84
79
142
217
214
176
151
121
78
38
47
41
74
122
102
109
211
210
177
31
9
8
8
6
7
9
7
5
4
4
4
169
237
122
173
202
208
203
132
91
125
154
108
85
91
53
76
115
152
156
96
66
94
98
99
97
111
127
130
139
144
122
112
121
125
129
115
132
138
107
60
73
91
74
54
62
105
91
82
71
89
77
73
83
117
140
138
136
134
135
138
133
115
115
119
124
125
127
128
119
104
103
104
107
96
82
110
129
91
84
92
92
94
95
