P2
#Figura modificada...
120 68
255
69 74 112 104 23 11 13 15 38 75 53 22 19 32 39 81 82 97 101 101 104 109 124 130 139 142 135 82 62 91 123 98 56 40 117 133 89 67 58 92 106 91 88 127 131 91 89 141 116 134 117 140 99 83 74 58 55 65 148 152 124 109 118 117 80 65 53 80 118 87 49 55 56 120 105 116 125 108 120 104 31 38 65 53 31 61 125 75 37 56 62 40 37 52 73 46 38 82 80 38 26 47 67 52 74 46 34 52 89 124 113 32 23 46 81 130 123 29 17 23 
58 58 121 133 65 23 27 27 34 82 61 29 39 45 45 47 62 73 91 99 98 105 99 104 106 106 99 69 83 118 131 91 38 73 133 101 45 46 58 118 117 125 121 92 73 58 87 124 114 134 92 63 63 44 44 47 73 62 123 141 101 101 148 124 123 70 55 58 87 67 44 62 152 134 149 128 128 119 107 112 141 38 39 37 32 47 116 80 29 34 31 31 27 32 55 49 38 39 31 27 29 39 69 47 47 46 34 34 53 127 104 62 49 92 104 97 87 19 19 17 
97 97 106 123 105 40 39 29 63 123 117 29 44 47 49 45 39 34 37 40 40 45 44 40 44 47 63 62 74 106 105 74 52 77 74 34 40 47 45 88 130 87 92 81 55 49 56 104 139 112 81 55 32 45 37 37 55 45 53 75 61 52 74 139 91 61 55 47 58 45 34 74 111 124 128 102 115 109 124 124 104 46 44 34 75 99 65 40 45 32 32 31 32 53 46 31 31 37 39 117 125 56 46 40 34 38 34 65 123 121 112 39 49 112 123 80 38 26 58 67 
133 121 92 116 109 31 52 89 91 129 131 39 49 63 65 61 58 56 63 73 92 97 95 89 67 53 49 44 40 55 52 67 75 53 39 39 44 53 47 83 97 58 56 83 106 92 112 112 134 101 56 46 39 53 49 40 37 37 34 73 145 130 70 67 56 53 53 44 38 34 32 130 115 125 126 108 131 134 120 120 105 83 38 44 123 148 105 45 34 27 39 32 47 121 117 52 29 32 52 149 112 97 37 38 31 38 44 104 102 142 98 38 32 88 112 77 23 49 83 77 
112 109 97 125 97 22 99 124 135 116 116 61 77 70 73 88 83 81 88 101 121 125 131 117 89 73 40 29 44 52 45 70 74 70 70 58 52 55 52 112 124 75 62 81 99 133 106 135 123 74 55 47 40 75 125 99 47 53 52 87 107 149 87 56 55 52 47 40 37 39 39 139 135 120 121 103 112 139 146 109 148 61 34 55 133 134 123 77 39 37 37 34 61 140 139 81 34 32 52 139 141 116 46 38 34 32 31 92 139 125 92 31 26 37 74 47 13 47 82 69 
110 110 106 133 88 23 73 133 92 142 105 73 82 37 29 31 34 40 49 47 44 44 46 87 142 116 58 49 53 45 49 99 116 104 75 63 46 46 69 145 142 110 99 87 81 135 104 149 135 101 63 58 49 110 107 113 124 58 67 77 116 117 80 39 38 53 46 44 39 44 73 117 117 102 120 117 135 114 109 128 116 77 37 91 145 110 125 135 62 39 38 44 46 70 75 61 39 32 34 105 123 118 80 44 39 34 26 62 124 104 67 31 37 62 77 49 26 69 118 73 
104 106 106 99 67 23 26 31 39 97 77 80 88 58 65 70 80 83 89 95 97 97 98 131 134 102 47 38 44 47 56 121 123 92 62 46 39 39 83 102 104 127 95 87 97 148 116 111 106 142 92 63 128 128 102 128 142 142 105 56 47 52 49 38 37 61 53 46 46 44 99 106 102 123 108 107 135 151 145 118 140 104 65 83 131 109 87 83 52 47 47 34 53 88 69 49 65 77 61 92 91 83 75 95 133 87 27 62 147 99 32 27 65 83 61 39 31 80 123 61 
62 53 53 67 40 23 27 38 38 47 61 89 113 124 139 145 104 112 113 117 118 117 112 102 111 110 27 29 32 46 75 104 77 52 53 45 44 38 95 147 113 70 67 83 116 117 129 119 124 127 113 106 122 114 127 92 97 116 101 58 40 37 38 34 39 92 91 37 49 65 105 81 74 104 108 142 98 117 113 134 104 109 109 44 53 70 45 32 40 73 91 52 45 65 46 32 87 117 80 92 82 74 67 125 129 104 52 70 149 81 22 31 56 56 32 27 27 77 105 39 
67 69 83 119 113 40 46 53 53 55 39 34 45 55 58 61 63 67 63 69 62 58 75 116 134 56 34 34 38 61 69 69 49 45 44 45 39 46 58 70 61 65 65 77 140 134 134 124 121 129 106 137 113 111 67 92 101 82 80 56 45 37 37 39 38 97 105 39 53 67 99 46 37 61 140 98 70 89 112 141 103 104 97 44 44 44 39 29 40 55 55 40 38 39 88 104 133 95 69 91 77 69 124 116 129 136 49 101 91 34 32 104 123 65 26 22 29 49 52 89 
63 81 110 142 140 32 40 69 62 58 47 55 53 61 69 75 83 88 118 106 81 73 44 37 58 99 105 69 62 63 56 53 49 49 44 44 37 40 47 98 125 95 74 89 104 134 134 124 102 147 128 133 127 69 45 91 104 80 49 49 56 62 92 87 38 73 83 49 55 88 92 45 58 92 140 133 104 99 104 116 116 124 44 38 38 39 32 38 89 97 62 44 32 40 104 152 134 112 67 95 77 58 125 139 102 134 65 131 58 29 46 130 135 91 26 39 34 39 75 145 
87 117 102 139 140 56 77 80 92 105 125 139 135 141 152 104 109 107 123 109 106 123 52 34 75 109 108 104 65 63 44 39 39 46 49 40 49 44 62 127 141 117 83 99 152 123 124 112 116 143 103 122 77 23 81 107 104 80 40 67 74 109 122 102 67 73 82 70 77 131 142 80 105 142 145 113 87 95 104 102 127 58 27 32 45 55 47 53 135 148 95 38 32 37 131 123 113 101 53 83 74 61 99 111 104 123 73 77 32 29 44 141 133 82 39 38 46 40 87 140 
101 118 125 129 140 82 73 45 49 53 62 65 69 67 67 65 67 117 107 145 101 61 40 37 77 145 140 99 46 45 45 45 32 56 98 82 125 105 69 124 140 118 101 110 112 116 112 109 107 141 116 58 17 22 98 130 112 74 45 67 89 130 129 112 88 53 73 74 73 145 133 83 106 147 135 104 81 124 106 102 125 62 39 37 52 91 104 105 131 123 106 55 32 32 99 139 124 70 53 67 69 63 61 106 95 53 83 46 29 29 62 102 134 69 58 37 47 56 116 99 
31 53 53 152 116 75 73 46 46 49 63 67 69 73 75 81 69 88 131 106 65 49 46 39 56 105 104 65 52 56 46 44 58 112 152 113 139 133 92 148 111 127 127 149 106 148 149 104 124 61 34 39 38 49 98 107 106 116 77 113 99 141 109 117 56 49 91 99 113 141 99 56 63 112 145 134 92 104 129 149 89 53 61 75 47 63 118 118 98 89 123 87 32 37 82 118 95 45 44 67 63 61 52 55 61 47 92 80 55 77 106 145 98 55 73 62 34 65 98 97 
26 34 38 65 67 88 109 130 140 102 108 112 116 118 119 118 106 55 73 55 47 49 55 49 52 49 39 47 53 49 49 105 116 122 142 88 121 123 113 149 127 113 121 107 129 108 147 139 87 70 111 137 112 74 109 121 105 80 77 107 111 147 88 52 44 49 89 141 149 117 62 40 40 75 108 119 131 127 134 106 73 70 65 116 92 62 77 80 99 74 73 55 45 44 61 70 47 38 44 63 70 82 87 75 97 109 112 106 110 121 127 102 135 101 91 80 44 45 40 45 
53 56 52 45 45 46 53 77 80 83 98 91 87 87 88 89 67 49 39 40 55 49 52 53 52 46 46 73 63 44 65 133 117 106 106 81 101 101 105 104 83 106 105 123 118 107 125 105 82 133 148 125 118 88 124 99 56 45 69 112 110 89 47 40 39 53 101 125 83 65 52 46 39 40 118 133 125 141 136 118 133 152 91 92 104 62 61 77 81 46 40 38 45 46 37 40 45 45 34 39 65 110 99 82 110 113 97 97 130 141 139 130 127 119 124 81 31 39 40 58 
55 55 55 37 29 31 34 44 46 45 70 63 49 55 55 52 53 47 45 40 40 38 45 44 45 45 99 109 142 70 82 135 145 113 80 77 77 73 62 63 87 152 116 131 140 145 116 99 92 124 129 125 107 105 67 53 39 87 149 142 63 38 44 40 38 92 116 117 99 45 46 44 47 45 73 87 117 118 123 123 152 109 121 88 88 67 81 67 49 38 34 39 39 37 39 80 106 67 34 29 58 112 83 77 110 127 104 113 134 121 113 116 108 109 125 56 27 38 32 105 
52 58 74 80 97 118 116 118 124 101 81 82 127 148 104 49 52 49 56 55 38 32 40 45 49 49 116 119 152 82 97 152 139 101 116 83 73 81 97 81 83 104 118 139 104 106 98 101 104 148 103 129 116 149 34 38 55 131 122 104 58 29 44 46 44 125 124 104 99 55 46 46 97 89 67 67 97 140 102 127 104 104 140 110 97 104 107 116 53 34 32 46 38 39 55 106 124 92 49 38 74 110 80 67 99 142 116 135 112 91 101 149 140 124 80 45 17 26 37 112 
34 46 56 61 83 95 97 99 99 112 121 112 109 110 87 62 87 82 106 110 62 39 45 62 89 73 113 106 131 97 124 148 112 117 147 91 69 87 97 81 69 95 109 87 77 81 77 118 123 111 146 129 106 112 69 53 61 106 129 145 58 37 39 40 49 133 124 104 98 49 39 56 145 147 87 62 101 145 113 80 121 134 104 73 73 113 104 141 73 53 52 53 39 32 58 139 149 106 46 49 81 95 81 80 99 142 104 116 69 83 109 124 116 75 45 65 46 40 40 99 
26 31 32 34 38 46 47 52 55 58 81 67 46 62 97 140 142 131 139 117 70 45 40 47 56 53 99 118 77 55 97 123 87 95 121 70 56 82 69 73 65 70 67 70 77 83 82 130 113 149 148 130 118 123 110 73 123 123 123 142 101 80 49 52 74 139 116 134 75 40 40 67 141 121 63 40 97 145 101 67 88 91 77 52 58 95 124 95 62 73 133 139 134 124 61 104 124 109 39 117 129 139 112 87 70 97 116 74 39 67 74 69 58 31 27 44 52 45 37 62 
87 117 131 139 148 104 107 141 69 44 44 44 39 62 124 148 125 95 113 74 40 52 58 91 67 56 67 73 74 69 65 82 81 67 69 55 62 67 61 67 63 62 63 73 67 92 118 140 147 125 147 129 122 121 116 87 111 147 118 112 149 123 117 67 63 74 91 77 63 58 88 152 134 65 39 39 70 92 82 65 63 55 49 65 91 131 121 74 52 75 141 134 148 111 104 111 124 67 34 104 119 142 127 56 44 65 91 52 31 40 39 46 39 26 26 31 34 47 37 40 
91 121 131 133 141 140 139 118 53 45 40 45 49 62 117 149 127 65 101 97 58 39 46 77 62 55 65 124 113 152 77 63 70 63 62 61 62 63 70 67 63 70 74 110 109 92 135 135 125 123 103 136 124 111 119 106 112 127 145 152 104 89 101 73 65 89 92 91 75 56 109 102 88 38 38 38 37 53 61 58 62 63 58 82 140 111 106 80 52 112 135 129 143 113 111 121 141 34 34 110 112 152 118 44 34 38 56 45 53 45 34 34 40 31 31 29 29 39 37 29 
44 40 44 47 56 40 47 49 46 44 56 67 77 70 135 112 89 110 124 119 87 45 39 39 49 55 70 149 129 113 97 61 61 62 58 56 75 81 65 56 56 62 98 128 129 134 131 121 125 134 148 129 111 145 108 109 109 102 127 125 121 70 69 65 58 87 116 113 92 53 40 61 46 38 39 45 49 52 55 69 117 142 112 101 145 116 149 117 70 124 99 129 106 135 113 112 62 29 69 119 122 139 81 31 32 39 55 53 69 55 40 34 45 31 34 31 34 39 31 22 
135 139 131 98 123 91 101 75 45 46 49 75 81 80 83 105 61 117 113 102 87 47 37 44 52 58 67 147 121 102 92 62 62 56 55 65 135 102 91 46 47 45 109 124 116 104 133 117 125 106 142 129 111 108 106 58 61 56 121 117 145 75 47 56 58 62 112 134 113 65 37 32 34 38 56 117 113 65 47 73 148 119 145 124 130 61 87 123 106 125 80 82 112 119 141 69 40 34 95 128 119 147 67 31 29 58 47 74 107 134 56 34 32 31 31 29 37 40 27 20 
125 127 118 125 152 124 113 63 38 32 45 77 125 123 75 69 55 88 131 113 80 77 65 49 69 73 65 109 139 99 61 61 53 56 55 75 152 113 101 53 47 49 106 113 109 102 112 105 116 119 135 128 116 140 139 40 32 37 135 129 116 105 55 61 62 58 110 108 139 74 32 32 34 31 74 108 142 81 77 98 134 104 127 98 91 38 37 82 113 109 63 65 140 133 148 101 39 32 73 108 102 106 47 37 29 44 39 81 116 145 63 37 27 26 27 39 44 37 37 34 
45 47 67 95 117 117 121 92 92 67 45 73 139 142 91 87 127 118 131 92 116 102 134 133 131 89 55 61 61 40 39 46 47 46 52 56 117 147 91 44 89 113 108 122 135 145 95 69 62 127 129 127 109 125 139 87 45 37 117 112 140 98 70 82 67 56 67 105 83 52 61 67 40 37 80 148 118 77 124 116 95 105 63 44 47 47 87 109 109 101 124 119 118 122 147 118 123 53 52 91 89 53 46 46 63 98 82 113 108 123 49 44 38 31 27 55 61 53 67 133 
104 145 117 110 109 140 106 130 124 147 74 83 107 140 104 104 118 116 124 149 104 113 107 127 149 67 45 44 46 39 37 45 69 67 67 88 104 80 47 44 142 136 106 142 104 128 116 97 40 75 127 124 124 116 107 128 104 70 83 112 81 56 74 135 121 65 53 45 38 37 63 95 88 38 62 117 82 97 113 110 58 55 39 38 44 46 113 118 108 104 114 139 99 118 124 148 118 97 69 52 52 47 46 44 69 82 106 152 124 82 39 46 75 65 37 123 147 106 52 134 
111 108 106 145 141 102 145 124 121 112 89 75 131 91 52 139 133 124 123 122 119 116 109 141 91 49 56 80 77 46 39 38 92 91 95 149 141 61 53 149 129 131 107 113 113 147 129 125 47 26 113 118 127 122 116 140 134 97 74 91 92 88 67 109 118 63 53 47 44 47 62 70 92 52 47 117 83 73 101 61 40 45 44 39 65 82 81 106 121 141 122 139 148 128 109 121 108 80 104 53 46 44 39 37 56 49 139 134 98 121 121 49 61 88 32 127 116 83 32 70 
70 140 108 149 145 145 145 139 116 102 82 61 75 56 70 111 129 135 127 130 113 116 127 152 70 47 63 140 142 80 45 38 83 80 118 119 104 74 65 111 136 130 134 130 103 124 118 127 55 88 135 123 134 109 149 116 139 87 74 109 123 118 75 61 56 46 47 49 46 77 112 88 61 49 40 74 81 117 87 45 38 44 45 46 118 102 123 141 124 104 117 104 139 128 148 121 117 80 105 52 95 134 99 47 37 29 91 117 102 102 152 140 44 61 38 149 106 52 87 104 
148 106 147 134 131 139 148 127 106 131 70 130 148 127 127 112 104 122 104 106 152 122 121 102 77 56 89 124 127 134 55 37 87 75 148 124 152 75 95 119 136 131 109 118 109 106 101 133 98 116 139 129 113 130 124 111 130 67 61 104 152 102 87 45 38 39 46 47 49 125 116 131 69 37 44 47 116 112 145 95 45 46 34 39 125 113 104 148 124 152 112 107 149 133 113 147 123 104 141 67 104 143 127 89 40 29 63 102 107 136 124 121 67 53 44 113 91 34 140 135 
104 152 123 139 134 140 148 109 97 89 46 130 104 127 112 139 98 149 104 109 116 122 104 148 112 70 83 106 112 125 104 63 69 80 127 141 112 61 81 104 134 119 131 56 56 74 52 149 106 65 122 152 147 142 129 128 142 106 119 141 118 118 110 39 39 44 47 47 47 113 109 118 55 37 37 74 149 111 109 124 53 37 34 49 117 148 135 127 113 139 108 103 133 116 107 145 133 112 109 88 124 148 136 118 47 40 52 104 117 112 148 130 74 49 40 40 34 39 149 119 
101 131 134 135 116 105 125 107 127 111 81 91 113 75 56 98 105 148 116 116 108 134 125 140 148 105 112 104 104 102 109 149 141 116 99 139 133 82 44 127 146 122 65 39 55 75 47 106 105 121 130 137 145 137 129 119 148 115 116 141 107 139 133 38 74 112 62 56 55 70 88 49 39 37 37 97 109 149 113 77 45 47 45 53 73 75 92 105 110 104 142 130 152 123 124 118 125 124 91 83 102 124 113 99 53 55 65 61 92 139 104 56 61 56 65 44 45 49 130 109 
58 92 104 145 127 99 145 142 102 119 97 75 55 38 47 74 135 119 113 147 124 140 122 135 105 106 124 152 139 116 117 117 127 145 112 135 116 75 39 61 119 142 52 37 62 89 53 102 134 133 134 105 135 134 121 111 152 114 122 114 17 112 152 118 148 116 112 69 53 47 34 27 39 39 45 58 82 92 53 38 38 70 97 69 61 55 88 87 55 82 104 112 116 108 111 147 104 121 91 73 83 142 123 61 47 62 110 88 63 62 47 40 40 47 116 123 53 53 121 134 
62 73 139 109 133 102 116 107 108 108 62 65 46 62 77 61 112 129 112 104 97 149 118 147 105 97 109 130 80 107 111 145 130 98 101 146 112 70 37 46 105 81 37 31 40 62 146 141 114 107 134 114 148 147 130 111 148 124 141 130 29 147 115 136 110 152 134 74 46 40 37 39 38 37 39 44 56 110 119 130 53 49 91 81 65 73 116 127 81 63 104 128 129 124 118 152 124 133 112 56 49 53 49 46 52 67 105 113 62 53 61 47 39 40 89 106 88 58 70 87 
131 101 113 121 149 107 139 137 141 113 55 49 55 134 102 97 106 117 123 83 82 123 149 117 74 80 109 133 98 109 130 134 118 82 121 108 116 53 31 61 82 69 39 32 34 52 145 45 101 143 114 128 148 146 134 125 120 63 146 136 104 102 114 104 141 133 124 55 40 39 38 46 38 39 44 47 52 106 108 134 82 31 39 49 52 105 121 129 133 62 124 117 123 112 152 130 149 133 112 77 38 29 34 46 62 123 125 83 47 75 67 47 40 40 56 113 74 61 56 63 
129 141 122 118 107 111 129 127 124 83 44 45 67 112 130 104 149 140 135 89 73 65 77 58 53 56 80 92 117 107 109 112 107 92 127 116 139 104 39 82 105 83 61 32 74 134 121 107 53 113 117 147 143 141 137 123 136 134 118 116 130 101 109 105 149 124 62 31 37 45 67 117 110 58 45 45 47 104 143 128 105 39 49 49 73 116 133 123 140 61 104 149 112 111 148 123 102 127 107 97 46 29 38 53 89 130 134 130 63 97 92 47 56 118 110 70 55 63 65 89 
122 109 123 103 119 142 112 112 123 63 39 40 87 104 112 141 145 142 102 69 62 58 53 65 106 113 63 45 112 139 106 140 134 112 69 129 111 92 49 117 109 134 109 67 113 134 120 125 26 121 104 125 145 139 137 125 135 131 129 117 26 56 104 137 152 110 44 37 37 40 118 129 116 87 38 44 47 139 129 152 67 65 110 87 80 129 133 149 88 46 89 147 112 108 135 101 104 134 109 65 62 88 45 45 89 136 135 108 67 87 95 56 83 116 124 106 73 104 67 95 
108 128 140 149 124 110 112 128 139 74 89 109 105 139 130 89 125 148 113 62 53 47 83 121 91 83 92 81 89 95 106 142 119 95 87 148 117 38 40 123 109 113 104 92 87 145 115 148 11 134 124 145 147 142 137 127 112 109 112 147 39 111 137 130 152 92 58 63 44 38 121 122 149 142 113 99 58 80 101 65 39 47 77 82 63 106 112 91 45 38 49 91 124 130 101 121 109 141 123 63 118 116 53 56 80 142 108 106 133 92 82 53 110 147 127 118 113 125 75 83 
118 104 62 112 147 110 102 145 74 52 109 145 97 80 58 55 65 73 70 58 46 52 70 11 5 9 9 37 70 61 87 152 109 62 116 107 125 53 65 125 111 104 91 58 56 142 103 130 9 118 105 145 102 149 128 113 88 125 118 109 106 112 119 122 110 55 49 55 52 46 83 108 128 97 98 135 95 61 44 37 34 34 46 77 49 63 65 38 34 34 34 70 134 113 81 134 113 124 118 55 65 101 82 148 134 92 127 141 116 133 62 44 49 53 56 97 99 112 61 80 
110 47 44 80 109 67 73 55 47 70 63 106 73 49 49 53 58 117 134 82 49 47 19 5 5 4 4 13 40 80 111 149 73 69 74 133 135 65 105 124 117 101 67 56 112 140 146 89 11 116 107 102 102 111 105 81 99 99 124 116 117 110 116 103 47 44 37 46 53 56 117 141 116 77 31 58 135 116 58 44 38 34 37 46 40 31 40 39 34 39 39 80 142 104 105 112 121 142 117 55 55 52 130 122 130 145 111 149 104 134 74 39 23 31 46 92 58 55 49 58 
65 40 32 47 61 56 46 99 139 148 142 73 63 47 40 44 83 127 135 121 39 37 15 9 9 4 4 15 47 106 106 102 69 127 131 117 109 80 139 149 127 117 70 56 122 143 102 102 10 152 110 143 129 104 83 106 92 89 128 114 116 115 115 139 49 52 32 37 116 120 125 127 133 80 53 37 45 83 88 44 38 37 44 44 38 32 53 47 46 34 61 139 104 89 98 134 128 113 101 58 53 62 121 141 99 107 106 149 152 121 52 32 23 26 52 69 46 38 40 31 
130 91 40 49 62 47 65 112 108 107 121 58 47 47 44 44 101 124 116 117 45 44 20 11 9 4 5 23 62 152 104 108 125 129 119 119 108 148 116 116 142 152 88 56 111 143 105 142 5 123 122 130 109 92 101 99 91 91 117 103 112 114 149 135 62 52 31 39 139 139 142 136 102 65 32 22 38 55 89 40 34 44 97 97 81 40 34 39 37 31 106 134 134 113 87 118 125 111 65 52 47 92 92 52 106 109 104 135 145 110 45 29 29 39 113 92 44 44 31 22 
112 127 53 62 91 97 145 124 129 128 112 109 69 52 46 69 127 149 141 89 81 69 19 9 5 4 5 26 55 139 102 141 116 139 123 129 129 129 124 99 133 106 101 55 103 129 110 111 88 58 117 83 88 105 92 77 89 87 87 102 109 115 147 62 73 52 34 89 128 145 106 123 112 83 37 20 20 26 70 39 29 124 114 142 129 121 53 37 31 32 133 146 134 140 81 146 130 107 63 46 62 109 142 61 118 145 135 130 141 133 65 31 31 61 116 142 40 29 23 29 
148 109 56 99 117 134 120 116 128 116 104 149 123 80 52 67 130 139 105 67 45 44 32 13 17 17 17 31 37 82 139 145 123 111 148 141 116 128 112 109 62 82 55 53 107 118 109 137 147 69 141 74 87 81 91 95 77 69 109 149 117 103 105 117 152 70 47 145 137 143 136 119 152 65 27 4 9 19 40 29 26 119 102 137 121 112 61 44 37 44 106 129 112 91 69 116 148 124 75 63 81 117 141 74 130 148 148 130 112 129 104 49 44 53 111 125 34 31 40 65 
142 74 56 104 129 142 149 141 102 133 104 117 130 106 104 55 116 130 61 34 31 34 34 32 40 47 34 70 73 75 118 128 104 99 95 123 111 112 125 81 55 46 52 61 105 115 113 111 145 109 125 81 91 83 70 61 69 75 139 133 145 108 92 106 124 52 89 149 125 124 120 140 120 45 11 4 4 19 39 45 61 109 140 104 107 142 95 74 52 62 52 116 82 49 58 82 101 147 134 97 55 87 80 74 121 134 139 112 124 134 140 133 109 63 87 77 32 32 67 152 
81 47 53 58 141 134 104 102 112 130 145 127 121 118 116 47 83 69 38 39 34 40 62 73 139 134 105 117 112 139 101 149 112 74 75 139 107 113 74 61 62 61 58 73 102 107 112 117 115 111 107 125 91 95 89 88 88 75 152 108 44 53 69 65 70 45 62 112 129 141 128 103 131 13 9 4 17 26 29 63 110 114 119 104 114 119 113 104 65 61 46 61 53 47 52 87 82 130 125 46 38 40 44 39 58 105 112 123 113 108 140 119 148 49 27 31 40 81 63 139 
55 52 70 89 134 134 142 107 143 139 140 108 131 142 77 37 38 40 55 56 37 31 118 112 125 120 104 121 111 124 61 77 105 123 133 114 111 75 56 55 58 62 53 44 134 104 104 136 108 113 106 110 89 63 53 39 47 82 81 107 87 109 124 111 141 133 118 124 122 128 121 136 116 15 5 34 67 61 47 88 116 140 106 128 133 121 134 118 70 63 52 97 112 67 47 55 58 75 53 44 63 106 65 31 46 140 118 116 52 136 131 111 127 38 26 27 109 103 109 106 
56 63 105 117 125 104 131 146 129 119 137 152 141 98 49 29 45 77 131 123 61 31 148 129 133 88 11 13 46 140 139 134 53 136 124 126 102 95 49 95 87 56 65 47 149 139 127 125 131 131 105 77 69 98 109 110 111 110 118 106 134 102 116 128 104 136 117 102 125 137 120 148 142 39 26 104 121 109 87 99 131 117 109 104 109 114 111 88 56 56 73 111 117 105 49 46 39 44 37 55 147 129 142 62 83 111 117 113 124 116 124 127 75 45 29 44 124 147 122 123 
58 75 141 149 112 136 114 122 130 145 134 116 140 77 37 26 44 97 123 112 121 133 73 13 70 111 140 109 133 137 143 143 147 27 109 124 124 125 80 112 69 89 106 92 91 117 117 116 117 106 63 69 82 89 97 147 116 102 116 140 104 123 124 152 124 141 123 98 116 124 134 108 113 134 44 134 129 113 105 98 106 122 114 113 108 103 130 46 49 62 87 123 123 124 56 39 44 45 37 53 123 135 119 117 127 116 107 134 136 148 124 111 118 106 121 116 127 112 104 134 
67 152 148 133 125 108 117 102 143 142 121 147 139 117 75 39 44 92 140 102 143 15 130 116 145 123 135 145 140 139 129 113 129 11 128 124 145 119 112 130 152 110 91 106 117 117 116 116 117 80 65 81 104 101 131 116 107 116 142 129 127 152 136 127 121 117 88 81 113 112 129 139 121 134 81 130 112 148 123 123 105 141 108 143 139 106 130 87 53 47 67 142 142 91 53 77 122 129 81 117 123 119 129 108 148 112 147 112 111 123 109 104 109 108 134 134 114 109 109 134 
109 108 108 116 142 147 145 122 111 148 148 112 113 118 104 131 101 148 116 125 104 11 117 148 119 134 124 133 102 135 15 47 70 15 116 121 141 140 118 146 103 106 116 118 117 112 110 116 104 87 104 110 106 112 121 109 152 135 148 128 104 152 146 104 121 107 82 69 91 123 131 142 107 112 134 80 99 91 95 116 134 148 112 109 103 116 140 148 116 112 123 80 56 47 61 133 102 108 141 136 124 116 129 95 97 141 119 112 141 87 87 118 140 104 107 127 106 127 140 152 
102 121 139 113 104 146 141 143 152 104 116 131 118 152 108 124 122 120 126 125 123 147 23 135 104 81 17 10 10 127 104 118 118 143 53 112 108 134 120 120 145 112 117 117 116 116 113 106 88 105 113 110 75 133 116 131 119 136 142 134 147 123 112 106 147 121 127 89 106 117 123 102 117 124 113 61 61 70 87 123 135 125 136 119 118 146 129 102 129 149 128 113 67 63 49 80 117 141 102 104 130 117 107 63 58 134 139 103 127 77 105 149 107 122 104 107 139 107 149 121 
142 135 125 99 104 129 109 128 139 142 141 112 139 121 112 129 149 124 124 124 124 129 11 73 104 148 107 118 10 152 112 141 118 123 117 145 108 91 121 123 112 106 112 113 113 112 110 92 82 116 113 82 82 113 109 104 127 142 149 134 102 142 146 102 152 139 104 152 149 104 134 140 112 106 111 70 102 145 140 119 122 103 112 104 136 107 80 67 77 106 112 148 143 95 56 109 117 149 134 102 106 139 125 56 44 97 152 104 145 105 117 127 142 134 149 107 148 134 112 108 
142 112 105 98 141 112 131 112 136 118 104 141 112 139 108 111 148 124 141 112 122 104 20 104 120 148 141 120 95 129 112 20 149 124 136 122 152 75 38 102 124 104 92 80 83 98 105 74 97 99 95 77 106 136 106 116 102 124 122 108 122 134 103 124 111 131 118 130 118 113 109 112 104 147 134 102 149 135 141 130 103 123 134 104 145 104 65 145 122 112 124 127 118 130 145 139 134 107 148 145 139 143 95 56 46 77 104 73 58 95 131 148 140 134 104 106 140 123 133 111 
112 112 98 97 116 139 91 91 127 106 139 123 127 101 101 81 115 124 149 108 122 117 104 112 148 15 104 122 148 135 124 140 53 115 121 142 152 117 13 140 117 124 121 32 49 63 87 29 81 98 101 89 117 134 111 123 108 107 148 106 122 102 148 131 101 118 82 104 134 102 134 108 113 39 82 103 148 134 102 143 107 122 121 124 104 123 139 130 129 128 106 134 136 143 109 113 145 149 135 141 102 148 110 69 55 82 91 52 40 80 124 129 122 134 145 123 149 134 121 123 
107 117 88 80 101 124 82 75 83 106 99 98 92 82 77 135 122 124 149 92 114 119 106 133 115 46 39 115 137 92 122 112 9 151 141 141 102 139 11 19 122 123 120 122 19 47 46 11 44 70 116 142 113 122 108 141 111 121 97 106 95 81 74 80 27 65 65 47 117 143 106 91 77 133 104 149 139 129 136 121 111 117 109 133 121 99 124 140 111 108 134 148 111 124 118 124 148 134 112 121 102 136 117 95 118 104 104 125 88 127 111 123 107 125 133 113 117 105 108 136 
112 149 92 74 89 91 73 74 82 88 87 80 80 73 77 117 124 117 56 5 139 115 141 128 122 112 5 149 108 11 143 109 10 141 148 49 148 148 83 15 127 121 124 112 113 135 106 104 110 135 149 148 102 104 147 139 141 121 112 87 58 58 75 46 11 10 52 55 56 92 39 88 124 133 111 130 123 133 134 115 112 124 118 116 124 123 140 116 101 65 110 95 67 98 113 135 107 128 116 106 117 152 135 152 129 141 143 137 111 133 124 124 114 136 116 112 111 107 148 134 
116 105 75 74 75 74 69 74 91 97 104 80 83 81 80 107 124 146 17 9 129 115 109 81 112 118 9 131 120 53 9 5 148 115 122 10 139 104 148 119 114 120 112 122 123 122 114 121 113 121 147 152 142 133 133 131 110 91 55 40 65 56 82 75 22 11 10 11 13 13 97 124 134 103 118 116 119 125 136 111 106 146 119 139 139 110 99 75 17 13 13 37 34 26 47 67 91 141 116 134 88 105 148 148 107 108 108 107 140 145 117 121 108 134 112 109 127 142 152 119 
95 87 74 75 77 77 70 75 97 91 82 70 80 81 113 112 125 147 11 56 129 115 116 106 117 92 40 107 112 17 9 127 109 108 89 5 128 122 141 109 141 145 148 107 120 115 145 104 104 131 130 118 113 101 99 130 112 128 112 32 46 22 38 37 22 15 13 11 10 88 129 128 127 111 104 112 123 112 112 134 139 109 129 123 117 121 140 56 11 11 15 65 61 45 32 23 29 55 117 116 97 141 121 104 107 108 108 105 134 133 116 121 108 129 112 116 136 134 103 129 
80 75 74 77 80 77 73 69 75 65 65 70 74 95 146 116 119 88 5 119 124 111 116 107 4 11 129 121 149 5 23 102 112 139 5 5 113 139 108 124 109 117 129 118 131 108 110 112 118 105 97 83 135 107 108 120 116 112 113 130 87 13 20 13 13 10 9 17 98 102 124 112 113 107 146 111 108 63 102 107 113 107 130 106 151 113 102 112 92 39 47 77 77 80 67 61 31 23 31 77 95 108 125 104 107 108 104 148 122 129 112 129 109 129 107 124 148 124 142 130 
75 77 74 77 77 75 74 70 69 67 58 61 63 106 103 124 105 13 9 147 123 152 116 125 5 146 122 124 10 10 125 119 103 11 5 5 152 148 116 141 134 103 114 148 143 103 134 135 109 118 112 124 146 119 110 112 112 108 108 131 44 10 10 10 9 10 47 109 133 140 135 106 112 134 129 106 123 109 142 108 134 130 129 107 124 122 125 129 149 135 140 62 74 82 73 70 70 67 62 67 105 104 127 104 107 105 148 139 103 118 104 127 108 127 111 124 123 152 123 129 
101 139 109 113 106 77 75 75 81 75 58 53 75 118 123 124 103 118 61 103 104 139 114 137 34 108 105 34 10 10 130 120 148 140 117 116 119 104 118 135 134 116 136 127 124 122 108 139 139 111 149 134 152 122 109 116 116 116 39 17 9 5 11 11 39 133 129 124 134 109 83 101 134 116 140 149 149 135 129 113 109 111 102 149 104 147 136 111 149 104 133 95 97 109 104 113 97 83 77 87 133 113 129 104 106 104 147 131 127 152 104 122 107 127 109 145 106 92 145 130 
109 108 125 114 124 77 82 95 97 83 69 58 109 122 121 122 121 112 143 125 149 120 109 102 148 118 129 10 95 135 121 112 118 115 112 145 106 105 113 122 127 106 127 111 116 148 103 140 106 104 109 136 104 142 115 117 107 38 5 10 11 23 49 104 102 146 134 101 110 88 75 147 142 124 104 104 133 145 111 129 141 139 125 152 149 135 108 145 106 113 139 129 108 119 112 123 133 82 97 108 152 108 139 103 104 102 147 122 112 152 107 112 108 125 102 121 101 97 145 124 
124 122 127 142 106 104 99 97 97 80 77 75 147 110 122 121 112 148 137 127 111 145 105 110 102 110 151 134 105 112 128 119 124 145 139 82 45 102 133 105 112 148 117 135 152 119 131 141 139 139 125 104 134 117 134 119 117 91 22 55 95 135 116 118 111 145 134 104 113 104 87 112 146 140 108 145 104 124 112 122 125 140 124 116 149 104 149 148 139 113 136 116 131 134 129 109 129 97 116 107 135 137 145 151 102 149 141 114 112 104 104 104 111 127 147 130 140 135 111 112 
117 127 119 129 133 133 110 99 104 91 91 110 133 118 121 118 104 122 109 111 104 119 148 115 120 106 117 104 128 130 47 5 13 9 3 5 17 146 111 120 123 134 127 122 113 147 111 134 128 128 124 123 125 140 141 146 141 116 145 124 133 134 119 111 104 130 128 127 139 133 113 116 146 147 133 102 152 113 105 135 98 74 116 110 130 139 127 113 149 117 134 122 124 124 124 118 103 139 147 112 127 135 135 135 137 133 124 111 127 124 111 108 107 122 139 130 148 148 104 107 
75 121 103 133 148 134 113 110 131 125 116 117 109 108 115 114 139 140 119 107 147 104 145 118 122 13 3 4 10 11 9 10 13 9 4 5 10 140 109 115 118 139 109 141 77 98 136 129 148 140 108 135 134 130 139 116 143 112 106 107 104 141 116 108 145 112 116 142 142 141 141 148 135 135 130 119 106 113 91 91 63 49 89 140 147 105 118 148 121 118 135 114 116 113 112 111 107 121 109 103 114 114 114 109 104 152 142 146 134 121 106 145 129 152 145 135 147 148 102 106 
53 80 130 139 102 139 123 134 116 113 145 102 147 137 140 131 134 116 152 104 140 147 152 120 117 2 4 9 10 9 5 11 11 5 5 4 5 139 109 149 151 124 125 44 130 89 145 129 122 111 111 133 130 131 135 134 118 149 109 108 107 146 117 146 121 124 116 140 142 140 112 103 108 134 130 134 133 152 61 46 46 107 123 145 145 102 104 116 107 117 134 112 116 114 112 112 112 145 123 143 103 103 148 140 140 143 121 112 116 113 106 134 118 143 104 140 148 152 104 112 
65 69 133 113 112 118 104 147 117 143 137 151 107 104 108 109 74 74 113 143 142 104 108 114 120 5 11 11 10 5 9 11 11 5 5 4 5 137 109 108 149 134 148 145 130 125 131 122 124 104 106 108 134 137 137 134 130 104 146 103 102 143 143 119 122 121 147 111 112 112 107 133 129 113 134 139 128 104 117 47 74 104 130 116 112 140 121 104 123 104 134 111 114 113 112 111 112 107 134 133 134 136 141 145 147 141 112 152 107 112 104 133 121 146 152 130 142 149 107 113 
116 67 142 117 122 102 142 134 108 110 108 134 114 139 133 63 80 69 125 139 116 124 107 107 134 52 13 11 11 9 10 13 10 5 4 4 4 129 120 139 131 102 105 103 149 104 142 117 123 145 104 89 130 130 116 118 109 112 107 112 112 111 127 145 148 106 109 139 128 139 142 147 130 149 104 122 101 124 104 125 91 105 119 104 140 121 152 131 124 141 134 107 104 103 102 103 104 152 130 130 135 141 142 145 146 135 118 117 118 122 109 140 124 147 104 142 104 104 107 108 
