P2
#Figura modificada...
120 68
255
31 32 74 70 10 5 6 6 16 33 24 9 8 14 17 36 36 43 44 44 46 48 55 57 61 64 60 36 28 40 54 44 25 18 52 59 40 29 25 41 48 40 39 56 58 40 40 63 77 89 78 62 44 37 32 25 24 28 66 67 55 48 52 52 35 28 24 35 52 38 22 24 25 120 158 163 163 163 120 104 13 16 28 24 13 27 56 33 16 25 28 18 16 23 32 20 16 36 35 16 12 21 29 23 32 20 16 23 40 55 51 14 10 20 36 57 54 12 8 10 
25 25 54 59 28 10 12 12 16 36 27 12 17 20 20 21 28 32 40 44 44 47 44 46 48 48 44 31 37 52 58 40 16 32 59 44 20 20 25 52 78 56 54 41 32 25 38 83 115 89 41 28 28 19 19 21 32 28 54 63 44 44 66 83 54 32 24 25 38 29 19 28 101 134 150 163 163 163 161 163 94 16 17 16 14 21 51 35 12 16 13 13 12 14 24 22 16 17 13 12 12 17 31 21 21 20 16 16 24 56 70 28 22 41 46 43 38 8 8 8 
43 43 48 54 47 18 17 12 28 82 52 12 19 21 22 20 17 16 16 18 18 20 19 18 19 21 28 28 32 48 47 32 23 35 32 16 18 21 20 39 57 38 41 36 24 22 25 46 92 74 36 24 14 20 16 16 24 20 24 33 27 23 32 61 40 27 24 21 25 20 16 32 163 163 163 152 163 163 163 163 156 20 19 16 33 44 28 18 20 14 14 13 14 24 20 13 13 16 17 52 56 25 20 18 16 16 16 28 54 54 50 17 22 50 54 35 16 12 25 29 
59 54 41 51 48 13 23 40 40 86 58 17 22 28 28 27 25 25 28 32 41 43 42 40 29 24 22 19 18 24 23 29 33 24 17 17 19 24 21 37 43 25 25 37 48 41 50 50 60 44 25 20 17 24 22 18 16 16 16 32 64 57 32 29 25 24 24 19 16 16 14 57 163 163 163 162 132 134 163 163 159 37 16 19 54 66 47 20 16 12 17 14 21 54 52 23 12 14 23 67 75 43 16 16 13 16 19 46 68 64 44 16 14 39 50 35 10 22 37 35 
50 48 43 56 43 9 44 83 60 77 51 27 35 32 32 39 37 36 39 44 54 56 58 52 40 32 18 12 19 23 20 32 32 32 32 25 23 24 23 50 55 33 28 36 44 59 70 60 54 32 24 21 18 33 56 44 21 24 23 38 71 67 38 25 24 23 21 18 16 17 17 61 136 163 163 155 112 139 147 109 99 27 16 24 59 60 54 35 17 16 16 16 27 62 61 36 16 14 23 61 63 51 20 16 16 14 13 41 61 56 41 13 12 16 32 21 6 21 36 31 
48 48 48 59 39 10 32 59 41 64 47 32 36 16 12 13 16 18 22 21 19 19 20 38 64 51 25 22 24 20 22 44 51 46 33 28 20 20 31 64 64 48 44 38 36 60 70 67 60 44 28 25 22 48 106 113 83 25 29 35 51 52 35 17 16 24 20 19 17 19 32 52 78 154 163 163 136 163 163 128 76 35 16 40 64 48 56 60 28 17 16 19 20 32 33 27 17 14 16 47 54 52 35 19 17 16 12 28 55 46 29 13 16 28 35 22 12 31 52 32 
46 48 48 44 29 10 12 13 17 43 35 35 39 25 28 32 35 37 40 42 43 43 44 58 89 68 21 16 19 21 25 54 54 41 28 20 17 17 37 68 69 56 42 38 43 66 76 73 70 64 41 28 85 128 152 128 95 64 47 25 21 23 22 16 16 27 24 20 20 19 44 48 68 124 163 161 136 151 144 118 93 69 28 37 58 48 38 37 23 21 21 16 24 39 31 22 28 35 27 41 40 37 33 42 59 38 12 28 65 44 14 12 28 37 27 17 13 35 54 27 
28 24 24 29 18 10 12 16 16 21 27 40 51 55 61 64 70 75 76 78 79 78 74 68 73 48 12 12 14 20 33 46 35 23 24 20 19 16 42 65 51 32 29 37 51 78 86 80 83 84 76 48 121 114 84 41 43 51 44 25 18 16 16 16 17 41 40 16 22 28 47 36 32 105 108 95 44 78 76 89 105 109 48 19 24 32 20 14 18 32 40 23 20 28 20 14 38 52 35 41 36 32 29 56 86 69 23 32 67 36 9 13 25 25 14 12 12 35 47 17 
29 31 37 80 51 18 20 24 24 24 17 16 20 24 25 27 28 29 28 31 28 25 33 51 60 25 16 16 16 27 31 31 22 20 19 20 17 20 25 32 27 28 28 35 62 89 89 83 80 86 105 137 113 73 29 41 44 36 35 25 20 16 16 17 16 43 47 17 24 29 44 20 16 27 62 44 32 40 74 94 102 105 43 19 19 19 17 12 18 24 24 18 16 17 39 69 59 42 31 40 35 31 55 116 129 91 22 44 40 16 14 46 54 28 12 9 12 22 23 40 
28 36 48 95 62 14 18 31 28 25 21 24 24 27 31 33 37 39 52 48 36 32 19 16 25 44 47 31 28 28 25 24 22 22 19 19 16 18 21 44 56 42 32 40 69 89 89 83 102 98 128 132 84 31 20 40 46 35 22 22 25 28 41 38 16 32 37 22 24 39 41 20 25 41 62 59 46 44 70 76 76 55 19 16 16 17 14 16 40 43 28 19 14 18 69 101 89 50 29 42 35 25 56 92 102 89 28 58 25 12 20 57 60 40 12 17 16 17 33 64 
38 78 68 92 62 25 35 35 41 47 56 61 60 63 67 70 73 71 82 73 70 54 23 16 33 73 72 46 28 28 19 17 17 20 22 18 22 19 28 56 63 52 37 44 67 82 83 75 77 96 104 81 35 10 36 71 70 35 18 29 32 48 81 68 29 32 36 32 35 58 64 35 47 64 64 51 38 42 69 68 56 25 12 14 20 24 21 24 60 66 42 16 14 16 58 82 76 44 24 37 32 27 44 73 69 54 32 35 14 12 19 63 59 36 17 16 20 18 38 62 
44 79 56 86 62 36 32 20 22 24 28 28 31 29 29 28 29 52 71 64 44 27 18 16 35 64 62 44 20 20 20 20 14 25 44 36 56 47 31 55 62 52 44 48 74 77 74 73 71 63 51 25 8 9 44 87 74 32 20 29 40 57 86 75 39 24 32 32 32 64 59 37 48 65 60 46 36 55 70 68 56 28 17 16 23 40 46 47 58 54 48 24 14 14 44 61 55 32 24 29 31 28 27 48 42 24 37 20 12 12 28 68 60 31 25 16 21 25 51 44 
13 24 24 67 51 33 32 20 20 22 28 29 31 32 33 36 31 39 58 48 28 22 20 17 25 47 46 28 23 25 20 19 25 50 67 51 61 59 41 66 73 56 56 67 70 66 67 70 55 27 16 17 16 22 44 71 70 51 35 51 44 63 73 52 25 22 40 44 51 63 44 25 28 50 64 60 41 70 86 67 40 24 27 33 21 28 52 52 44 40 54 38 14 16 36 52 42 20 19 29 28 27 23 24 27 21 41 35 24 35 48 64 44 24 32 28 16 28 44 43 
12 16 16 28 29 39 48 57 62 68 72 75 77 79 80 79 48 24 32 24 21 22 24 22 23 22 17 21 24 22 22 47 77 81 64 39 54 54 51 67 56 51 54 71 86 72 65 61 38 32 110 137 112 32 48 54 47 35 35 71 73 65 39 23 19 22 40 63 67 52 28 18 18 33 72 80 58 84 89 48 32 32 28 51 41 28 35 35 44 32 32 24 20 19 27 32 21 16 19 28 32 36 38 33 43 48 50 48 48 54 56 68 60 44 40 35 19 20 18 20 
24 25 23 20 20 20 24 35 35 37 44 40 38 38 39 40 29 22 17 18 24 22 23 24 23 20 20 32 28 19 28 59 78 70 48 36 44 44 47 46 37 48 47 54 79 71 56 47 36 88 150 127 119 39 55 44 25 20 31 50 48 40 21 18 17 24 44 56 37 28 23 20 17 18 52 59 56 94 91 52 59 67 40 41 46 28 27 35 36 20 18 16 20 20 16 18 20 20 16 17 28 48 44 36 48 51 43 43 57 63 61 87 84 80 55 36 13 17 18 25 
24 24 24 16 12 13 16 19 20 20 32 28 22 24 24 23 24 21 20 18 18 16 20 19 20 20 44 73 64 32 36 60 64 51 35 35 35 32 28 28 38 67 76 58 62 64 51 44 41 55 128 125 106 47 29 24 17 38 67 64 28 16 19 18 16 41 77 78 44 20 20 19 21 20 32 38 52 79 82 54 67 73 54 39 39 29 36 29 22 16 16 17 17 16 17 35 48 29 16 12 25 50 37 35 48 56 69 51 60 54 51 76 72 73 56 25 12 16 14 47 
23 25 32 35 43 52 51 52 55 44 36 36 56 66 46 22 23 22 25 24 16 14 18 20 22 22 51 80 67 36 43 67 61 44 51 37 32 36 43 36 37 69 79 61 46 48 44 44 69 66 102 86 77 67 16 16 24 58 81 69 25 12 19 20 19 56 83 70 44 24 20 20 43 40 29 29 43 62 68 56 70 70 62 48 43 46 71 51 24 16 14 20 16 17 24 48 55 41 22 16 32 48 35 29 44 64 77 60 50 40 44 67 62 55 35 20 8 12 16 50 
16 20 25 27 37 42 43 44 44 50 54 50 48 48 38 28 38 36 48 48 28 17 20 28 40 32 51 70 58 43 55 66 50 52 65 40 31 38 43 36 31 42 48 38 35 36 35 52 82 73 97 86 70 74 31 24 27 70 86 64 25 16 17 18 22 59 83 70 44 22 17 25 64 65 38 28 44 64 51 35 54 60 46 32 32 51 69 63 32 24 23 24 17 14 25 61 67 48 20 22 36 42 36 35 44 64 69 51 31 37 48 55 51 33 20 28 20 18 18 44 
12 13 14 16 16 20 21 23 24 25 36 29 20 28 43 62 64 58 61 52 32 20 18 21 25 24 44 52 35 24 43 54 38 42 54 32 25 36 31 32 28 32 29 32 35 37 36 57 76 67 99 87 79 82 48 32 54 82 82 64 44 35 22 23 32 61 77 60 33 18 18 29 63 54 28 18 43 64 44 29 39 40 35 23 25 42 55 42 28 32 59 92 89 55 27 69 83 48 17 52 86 61 50 38 32 43 51 32 17 29 32 31 25 13 12 19 23 20 16 28 
38 52 58 61 66 69 71 63 31 19 19 19 17 28 83 100 56 42 51 32 18 23 25 40 29 25 29 32 32 31 28 36 36 29 31 24 28 29 27 29 28 28 28 32 29 41 52 62 65 56 98 86 81 80 77 38 73 98 79 75 67 54 52 29 28 32 40 35 28 25 39 67 60 28 17 17 32 41 36 28 28 24 22 28 40 58 54 32 23 33 63 135 148 110 46 73 83 29 16 70 120 95 56 25 19 28 40 23 13 18 17 20 17 12 12 13 16 21 16 18 
40 54 58 59 63 62 61 52 24 20 18 20 22 28 78 100 56 28 44 43 25 17 20 35 28 24 28 55 76 67 35 28 32 28 28 27 28 28 32 29 28 32 32 48 48 41 60 60 56 54 104 91 83 73 80 48 74 84 64 67 69 40 44 32 28 40 41 40 33 25 48 68 39 16 16 16 16 24 27 25 28 28 25 36 62 73 70 35 23 50 60 129 144 113 73 80 63 16 16 48 75 67 52 19 16 16 25 20 24 20 16 16 18 13 13 12 12 17 16 12 
19 18 19 21 25 18 21 22 20 19 25 29 35 32 60 75 40 48 83 80 38 20 17 17 22 24 32 67 86 76 43 27 27 28 25 25 33 36 28 25 25 28 44 85 86 60 58 54 56 60 99 86 73 64 72 48 73 68 56 56 54 32 31 28 25 38 51 51 41 24 18 27 20 16 17 20 22 23 24 31 52 64 50 44 64 51 67 52 32 55 44 86 105 90 76 50 28 12 31 80 81 61 36 13 14 17 24 24 31 24 18 16 20 13 16 13 16 17 13 9 
60 61 58 44 54 40 44 33 20 20 22 33 36 35 37 47 27 52 76 68 38 21 16 19 23 25 29 65 80 68 41 28 28 25 24 28 60 68 40 20 21 20 48 83 77 69 59 52 56 70 95 86 73 72 70 25 27 25 54 78 64 33 21 25 25 28 50 60 51 28 16 14 16 16 25 52 51 28 21 32 66 80 64 55 57 27 38 54 48 56 35 36 74 80 63 31 18 16 42 85 80 65 29 13 12 25 21 32 71 60 25 16 14 13 13 12 16 18 12 9 
56 56 52 56 67 55 51 28 16 14 20 35 56 54 33 31 24 39 58 51 35 35 28 22 31 32 28 48 61 44 27 27 24 25 24 33 67 76 44 24 21 22 48 76 73 68 50 47 51 80 90 85 77 62 61 18 14 16 60 86 76 47 24 27 28 25 48 72 61 32 14 14 16 13 32 72 64 36 35 44 60 70 56 44 40 16 16 36 51 48 28 28 62 88 66 44 17 14 32 72 68 48 21 16 12 19 17 36 76 64 28 16 12 12 12 17 19 16 16 16 
20 21 29 42 52 52 54 41 41 29 20 32 61 64 40 38 56 52 58 41 51 68 60 59 58 40 24 27 27 18 17 20 21 20 23 25 52 65 40 19 40 76 72 81 90 64 42 31 28 56 86 84 73 56 61 38 20 16 52 75 62 44 32 36 29 25 29 47 37 23 27 29 18 16 35 66 52 35 55 51 42 47 28 19 21 21 38 48 48 44 83 80 52 81 65 79 54 24 23 40 40 24 20 20 28 44 36 51 72 54 22 19 16 13 12 24 27 24 29 59 
69 64 52 48 48 62 70 57 55 65 32 37 71 62 46 46 79 76 83 67 70 76 71 84 67 29 20 19 20 17 16 20 31 29 29 39 46 35 21 19 95 136 105 95 104 85 76 43 18 33 84 83 83 76 71 85 70 32 37 50 36 25 32 60 54 28 24 20 16 16 28 42 39 16 28 52 36 43 76 48 25 24 17 16 19 20 51 79 72 70 115 92 44 79 83 100 79 43 31 23 23 21 20 19 31 36 48 67 55 36 17 20 33 28 16 54 65 48 23 60 
73 72 70 64 63 68 64 55 54 74 40 33 58 40 23 61 88 83 82 81 80 77 73 63 40 22 25 35 35 20 17 16 41 40 42 67 63 27 24 67 128 132 106 113 113 98 86 56 21 12 76 79 84 81 77 93 89 43 32 40 41 39 29 48 52 28 24 21 19 21 28 32 41 23 21 52 37 32 44 27 18 20 19 17 28 36 36 70 80 94 123 92 66 85 73 80 72 35 46 24 20 19 17 16 25 22 61 89 44 54 54 22 27 39 14 56 77 37 14 32 
32 62 72 67 64 64 64 61 51 68 36 27 33 25 32 73 86 90 84 87 76 76 84 67 32 21 28 62 64 35 20 16 37 35 52 80 69 32 28 112 136 131 133 131 104 83 79 56 24 39 60 82 89 73 67 116 92 38 32 48 54 52 33 27 25 20 21 22 20 35 50 39 27 22 18 32 36 52 38 20 16 19 20 20 52 68 54 63 83 105 117 104 92 85 66 54 52 35 47 23 42 60 44 21 16 12 40 78 68 102 101 62 19 27 16 67 70 23 38 70 
66 70 65 60 58 61 66 56 48 58 32 57 66 56 56 74 70 81 70 70 67 81 80 68 35 25 40 83 84 60 24 16 38 33 66 83 67 33 42 120 136 132 109 79 48 48 44 59 44 51 61 86 76 87 83 110 131 29 27 46 67 68 38 20 16 17 20 21 22 56 77 58 31 16 19 21 51 74 64 42 20 20 16 17 56 76 69 66 83 101 112 106 100 88 76 65 54 46 63 29 69 96 84 40 18 12 28 68 71 91 83 80 29 24 19 51 40 16 62 90 
70 67 54 61 60 62 66 48 43 40 20 57 70 56 50 61 44 67 69 73 77 81 69 66 50 32 37 70 74 56 46 28 31 35 56 63 50 27 36 105 134 120 58 25 25 32 23 67 48 28 81 101 147 143 129 128 143 160 120 94 79 79 48 17 17 19 21 21 21 51 73 52 24 16 16 32 67 73 73 55 24 16 16 22 52 66 60 56 76 92 108 104 88 76 71 64 59 50 48 39 83 99 91 52 21 18 23 46 52 75 66 57 32 22 18 18 16 17 67 80 
44 58 60 60 51 47 56 71 84 73 36 40 51 33 25 44 47 66 76 76 72 60 56 62 66 47 50 70 70 68 73 67 63 51 44 61 59 36 19 56 97 81 28 17 24 33 21 70 47 54 131 138 146 137 129 120 148 163 163 142 71 92 88 16 32 50 28 25 24 32 39 22 17 16 16 43 73 67 51 35 20 21 20 24 32 33 41 47 48 70 95 87 67 54 55 52 56 55 40 37 68 83 76 44 24 24 28 27 41 61 46 25 27 25 28 19 20 22 57 73 
25 41 69 64 56 44 96 143 153 120 43 33 24 16 21 32 60 80 76 65 55 62 81 60 47 48 55 67 61 77 78 78 84 64 50 90 77 33 17 27 80 64 23 16 28 40 24 102 134 132 135 158 136 133 121 110 152 115 123 115 8 74 152 52 66 116 75 31 24 21 16 12 17 17 20 25 36 41 24 16 16 32 43 31 27 24 39 38 24 36 69 74 77 72 73 65 70 54 40 32 37 64 54 27 21 28 48 39 28 28 21 18 18 21 51 54 24 24 54 60 
28 32 61 73 88 68 116 161 163 108 28 28 20 28 35 27 50 86 75 46 43 67 79 65 47 43 48 57 35 71 73 64 57 44 44 97 75 32 16 20 47 36 16 13 18 28 97 142 114 161 133 114 148 147 131 112 99 55 140 131 12 98 163 136 48 101 89 32 20 18 16 17 16 16 17 19 25 48 80 57 24 22 40 36 28 32 51 56 36 28 69 85 86 83 79 67 55 59 50 25 22 24 22 20 23 29 47 51 28 24 27 21 17 18 40 70 39 25 32 38 
58 44 51 80 100 71 92 137 140 76 24 22 24 60 68 43 48 78 54 37 36 54 67 52 32 35 48 59 44 73 57 60 52 36 54 108 76 24 13 27 36 31 17 14 16 23 144 20 44 144 114 85 148 147 133 125 120 28 147 136 46 102 163 156 63 59 55 24 18 17 16 20 16 17 19 21 23 70 108 89 36 13 17 22 23 47 80 86 59 28 55 78 82 75 67 57 67 88 74 35 16 12 16 20 28 54 56 37 21 33 29 21 18 18 25 51 32 27 25 28 
86 63 81 119 108 112 86 84 83 37 19 20 29 75 87 70 67 93 60 40 32 28 35 25 24 25 35 41 52 71 48 74 71 41 56 116 92 46 17 36 47 37 27 14 32 89 163 71 24 113 117 98 144 140 137 124 136 89 118 116 57 44 163 158 67 55 28 13 16 20 29 52 48 25 20 20 21 70 96 85 47 17 22 22 32 76 88 82 62 27 46 67 75 73 66 54 68 84 71 43 20 12 16 24 40 87 89 57 28 43 41 21 25 52 48 32 24 28 28 40 
81 73 82 104 80 95 74 74 54 28 17 18 38 69 74 63 64 95 68 31 28 25 24 28 48 51 28 20 50 61 48 93 89 50 31 86 73 41 22 52 73 60 48 29 51 135 163 127 12 121 156 125 146 139 138 125 136 132 131 117 12 25 156 138 67 48 19 16 16 18 52 86 77 38 16 19 21 61 86 67 29 28 48 38 35 86 88 67 39 20 40 65 75 72 60 44 46 60 48 28 28 39 20 20 40 91 90 72 29 38 42 25 37 76 83 48 32 46 29 42 
72 85 62 67 55 48 75 85 61 32 40 48 47 61 57 40 56 66 51 28 24 21 37 54 40 37 41 36 40 42 48 95 80 42 38 66 52 16 18 54 73 76 70 41 38 146 163 100 5 133 124 146 147 143 137 128 112 109 112 98 17 110 138 87 67 41 25 28 19 16 54 81 67 64 51 44 25 35 44 28 17 21 35 36 28 70 74 40 20 16 22 40 55 57 44 54 73 63 54 28 52 76 24 25 35 64 72 70 59 41 36 24 48 65 56 52 51 56 33 37 
52 46 28 50 65 48 68 64 32 23 48 64 43 35 25 24 28 32 32 25 20 23 32 5 3 4 4 16 32 27 38 67 48 28 51 71 56 24 28 56 73 69 40 25 25 143 155 57 4 119 158 144 152 150 128 76 39 56 118 109 105 163 120 81 48 24 22 24 23 20 37 72 85 43 44 60 42 27 19 16 16 16 20 35 22 28 28 16 16 16 16 32 60 51 36 89 113 83 52 24 28 44 36 66 60 41 56 63 77 59 28 19 22 24 25 43 44 50 27 35 
48 21 19 35 48 29 32 24 21 32 28 48 32 22 22 24 25 52 60 36 22 21 8 3 3 2 2 6 18 35 73 67 32 31 32 59 60 28 47 83 78 44 29 25 112 140 147 40 5 116 160 154 152 110 47 36 44 44 124 163 163 163 116 102 21 19 16 20 24 25 52 140 116 35 13 25 60 51 25 19 16 16 16 20 18 13 18 17 16 17 17 35 64 46 47 112 121 95 52 24 24 23 57 81 57 64 73 67 70 60 32 17 10 13 20 41 25 24 22 25 
28 18 14 21 27 25 20 44 92 99 64 32 28 21 18 19 37 84 90 54 17 16 6 4 4 2 2 6 21 70 105 68 31 56 58 52 48 35 61 67 56 52 32 25 121 144 154 68 4 101 163 144 86 46 37 48 41 40 85 163 163 163 163 140 22 23 14 16 51 120 125 128 88 35 24 16 20 37 39 19 16 16 19 19 16 14 24 21 20 16 27 61 70 40 44 89 128 113 44 25 24 28 54 63 44 71 70 67 67 54 23 14 10 12 23 31 20 16 18 13 
57 40 18 22 28 21 28 75 108 108 80 25 21 21 19 19 44 83 77 52 20 19 9 5 4 2 3 10 28 67 104 72 56 86 80 80 72 66 77 51 64 67 39 25 110 144 159 95 3 54 121 57 48 41 44 44 40 40 52 155 163 163 150 90 28 23 13 17 92 139 143 136 68 28 14 9 16 24 40 18 16 19 43 43 36 18 16 17 16 13 48 89 89 51 38 79 125 112 28 23 21 41 41 23 48 73 69 60 64 48 20 12 12 17 51 41 19 19 13 9 
75 56 24 28 40 43 64 83 86 85 74 48 31 23 20 31 56 67 63 40 36 31 8 4 3 2 3 12 24 61 102 63 76 92 82 86 86 86 83 44 59 70 44 24 104 129 163 110 39 25 117 37 39 47 41 35 40 38 38 154 163 163 98 28 32 23 16 40 128 146 160 124 74 37 16 9 9 12 32 17 12 55 114 95 86 54 24 16 13 14 59 97 89 62 36 97 131 108 28 20 28 73 64 27 52 64 60 57 63 59 28 13 13 27 77 64 18 12 10 12 
66 48 25 44 78 89 120 116 85 76 69 67 54 35 23 29 57 61 47 29 20 19 14 6 8 8 8 13 16 36 61 64 82 73 66 63 76 85 75 48 28 36 24 24 160 163 163 137 98 31 94 32 38 36 40 42 35 31 48 150 163 155 47 52 67 32 21 96 138 144 136 120 101 28 12 2 4 8 18 12 12 120 152 138 121 112 27 19 16 19 48 86 74 40 31 77 99 83 33 28 36 78 63 32 57 66 66 57 74 86 46 22 19 24 73 56 16 13 18 28 
64 32 25 46 86 95 100 94 68 59 46 52 57 70 46 24 51 57 27 16 13 16 16 14 18 21 16 32 32 33 52 85 70 44 42 54 73 75 56 36 24 20 23 27 158 163 163 163 146 163 125 36 40 37 32 27 31 33 92 132 146 108 41 48 55 23 40 100 127 124 120 140 120 20 5 2 2 8 17 20 27 109 140 104 108 95 42 32 23 28 23 51 36 22 25 36 44 65 60 43 24 38 35 32 54 60 61 50 83 89 62 59 48 28 38 35 14 14 29 67 
36 21 24 25 63 89 69 68 75 57 64 56 54 79 51 21 37 31 16 17 16 18 28 32 92 134 158 163 163 92 44 67 50 32 33 61 71 51 32 27 28 27 25 32 152 161 163 163 163 163 108 56 40 42 40 39 39 33 67 72 19 24 31 28 32 20 28 50 86 94 128 104 58 6 4 2 8 12 12 28 48 115 120 104 115 120 51 46 28 27 20 27 24 21 23 38 36 57 56 20 16 18 19 17 25 47 75 54 51 108 140 120 66 22 12 13 18 36 28 61 
24 23 32 40 60 89 95 106 96 92 140 108 58 64 35 16 16 18 24 25 16 13 52 163 163 163 156 121 73 55 27 35 47 124 132 114 73 33 25 24 25 28 24 19 135 156 156 136 108 76 70 48 40 28 24 17 21 36 36 71 38 48 55 112 140 132 118 124 123 128 121 91 51 6 3 16 29 27 21 39 77 140 105 128 132 121 89 52 32 28 23 43 50 29 21 24 25 33 24 19 28 48 28 13 20 62 79 51 23 91 132 110 56 16 12 12 73 102 73 48 
25 28 47 52 56 104 132 97 86 120 137 101 63 44 22 12 20 35 58 54 27 13 100 129 88 39 5 6 20 62 92 89 24 91 163 163 152 42 22 42 38 25 28 21 100 92 56 56 58 58 47 35 31 44 48 48 73 48 52 70 89 102 116 128 104 91 78 102 125 137 120 99 64 17 12 46 80 73 38 44 58 117 109 105 109 115 112 39 25 25 32 73 78 47 22 20 17 19 16 24 65 86 64 28 37 73 78 76 83 77 83 56 33 20 12 19 83 98 81 54 
25 33 63 67 50 91 114 81 87 96 89 76 62 35 16 12 19 43 82 75 54 59 32 6 32 73 93 109 132 138 144 144 98 12 163 163 163 125 35 50 31 40 48 41 40 52 52 51 52 48 28 31 36 40 43 65 77 68 76 93 105 124 83 101 55 63 54 44 77 124 134 108 76 60 19 60 86 76 47 44 48 123 114 113 108 102 57 20 22 28 38 82 82 55 25 17 19 20 16 24 82 90 80 52 56 77 106 134 136 100 83 73 52 70 80 77 84 75 69 60 
29 67 99 88 56 72 78 68 96 95 80 65 61 52 33 17 19 41 93 153 96 6 87 116 144 124 136 144 140 139 128 113 86 5 128 163 144 163 112 87 101 48 40 48 52 52 51 51 52 35 28 36 46 44 58 76 71 76 95 86 128 101 91 84 80 52 39 36 51 74 86 92 80 60 36 57 75 66 54 54 47 94 108 96 92 105 57 38 24 21 29 64 64 40 24 35 81 86 36 52 82 80 86 72 66 74 98 112 112 82 73 70 73 108 133 133 114 73 73 89 
73 108 108 76 64 98 96 81 112 100 66 50 51 52 70 58 44 99 163 163 156 5 78 148 120 134 124 88 68 60 6 21 32 6 76 163 142 140 163 147 104 48 51 52 52 50 48 51 46 38 46 48 48 50 80 73 67 90 100 85 104 101 97 70 80 71 36 31 40 54 58 64 71 74 60 35 44 40 42 51 60 99 75 73 102 116 93 99 77 50 54 35 25 21 27 59 102 108 63 91 83 76 86 42 43 63 80 112 94 38 38 52 62 69 108 128 105 56 62 101 
102 121 92 51 69 97 94 96 101 70 51 58 79 67 72 83 81 163 163 163 163 65 10 90 69 36 8 4 4 84 156 163 163 144 24 163 162 89 163 163 96 50 52 52 51 51 51 48 39 47 51 48 33 59 77 58 80 91 95 89 98 82 74 70 65 80 56 40 48 52 54 68 78 83 76 27 27 32 38 54 90 125 136 120 119 97 86 68 86 67 85 76 29 28 22 35 78 94 68 105 57 78 71 28 25 60 92 102 84 35 47 67 71 81 105 108 92 71 67 80 
95 90 56 44 69 86 73 85 92 64 63 74 92 80 75 86 100 163 163 163 163 128 5 32 104 148 161 118 4 152 163 94 118 163 52 146 163 40 121 163 163 70 50 51 51 50 48 41 36 51 51 36 36 76 73 69 84 95 100 89 68 95 97 68 67 61 70 67 67 69 60 62 74 105 110 32 68 96 93 80 81 102 112 104 91 71 35 29 35 48 75 100 96 42 25 48 78 67 89 102 48 92 56 25 19 43 67 69 64 47 52 84 95 89 100 106 99 89 74 72 
95 75 47 44 63 75 58 75 91 79 70 63 75 61 72 73 148 163 140 163 163 156 9 157 163 148 142 163 42 131 163 9 67 163 91 123 152 33 16 152 163 157 41 35 37 44 47 32 43 44 42 35 48 91 70 77 102 83 81 72 81 89 104 83 73 58 52 57 79 76 73 74 70 98 89 68 100 90 94 131 102 82 89 70 64 70 28 64 81 50 83 84 79 87 64 61 89 71 100 96 61 96 42 25 20 35 46 32 25 42 58 99 93 89 104 105 93 82 59 73 
112 75 44 43 51 61 40 40 56 70 61 54 56 44 44 36 163 163 100 108 163 163 46 163 148 6 69 163 99 90 163 62 24 163 121 95 152 52 6 62 163 163 121 14 22 28 38 12 36 44 44 40 52 89 73 82 72 71 66 70 81 68 66 58 44 52 36 46 60 102 133 108 51 17 36 102 99 89 102 144 108 81 80 55 46 54 92 131 131 128 105 60 91 96 109 113 96 67 90 94 68 99 48 31 24 36 40 23 18 35 55 86 81 89 96 82 67 60 54 82 
108 78 39 35 44 55 36 33 37 48 44 44 41 36 35 60 163 163 67 41 163 163 105 132 163 20 17 163 138 41 163 112 4 151 140 63 153 92 5 8 123 163 163 81 8 21 20 5 19 32 51 64 76 81 72 63 73 54 43 48 42 36 32 35 12 28 28 21 52 96 105 40 35 59 70 100 92 86 91 121 73 78 73 59 54 44 83 93 110 108 134 99 73 83 79 83 100 89 74 80 68 91 52 42 52 69 70 56 39 56 73 82 108 127 88 76 52 47 72 91 
74 67 41 32 40 40 32 32 36 39 38 35 35 32 35 117 163 163 25 3 139 163 142 85 163 75 3 150 163 5 144 109 4 142 150 22 148 99 37 6 84 163 163 163 113 90 70 46 48 60 67 66 68 69 65 61 63 54 50 38 25 25 33 20 5 4 23 24 25 41 17 39 83 88 110 87 82 59 133 163 112 83 52 77 83 54 62 51 44 28 48 42 29 44 51 60 71 85 77 48 52 67 60 101 129 140 144 137 112 88 83 83 114 136 77 75 73 71 100 89 
51 47 33 32 33 32 31 32 40 43 46 35 37 36 35 160 163 147 8 4 128 163 163 36 163 118 4 132 163 24 4 3 66 163 121 4 140 105 66 80 163 163 163 163 163 163 163 121 76 54 65 67 64 59 59 58 48 40 24 18 28 25 36 33 9 5 4 5 6 6 43 83 89 104 118 76 80 56 91 110 105 97 80 92 92 48 44 33 8 6 6 16 16 12 21 29 40 63 77 60 39 47 99 148 160 162 163 161 140 96 78 80 108 133 75 73 84 95 101 80 
42 38 32 33 35 35 32 33 43 40 36 32 35 36 51 163 163 98 5 25 131 163 163 70 78 41 18 161 163 8 4 56 163 163 40 3 128 121 94 109 142 146 148 160 163 163 146 69 69 58 57 52 51 44 44 87 112 85 74 14 20 9 16 16 9 6 6 5 4 39 86 85 84 110 105 75 82 50 75 89 92 109 129 124 117 80 62 25 5 5 6 28 27 20 14 10 12 24 52 76 43 63 121 157 161 163 163 158 135 88 76 80 108 131 74 77 91 89 104 86 
35 33 32 35 35 35 32 31 33 28 28 32 32 42 97 163 163 39 3 80 124 163 163 106 2 5 131 163 100 3 10 153 163 61 3 3 113 139 108 124 109 117 128 118 132 163 163 112 52 47 43 37 60 106 162 163 163 163 163 87 38 6 9 6 6 4 4 8 44 68 83 74 76 108 97 73 72 28 68 71 76 108 131 160 151 76 68 50 41 17 21 35 35 35 29 27 13 10 13 35 42 72 127 156 160 162 156 148 123 86 74 86 109 128 71 83 100 83 95 87 
33 35 32 35 35 33 32 32 31 29 25 27 28 48 155 163 158 6 4 98 82 152 163 125 3 97 163 124 4 4 56 163 104 5 3 3 101 150 116 142 135 102 114 99 96 155 135 90 73 52 75 83 97 120 163 163 163 163 108 58 19 4 4 4 4 4 21 48 59 62 60 48 74 89 86 70 82 48 95 108 89 87 128 108 124 121 125 128 67 60 62 28 32 36 32 32 32 29 28 29 47 70 128 156 160 159 148 140 102 79 69 84 108 128 73 83 82 67 82 86 
44 61 73 76 48 35 33 33 36 33 25 24 33 118 163 163 155 79 27 104 69 139 163 138 16 162 159 16 4 4 57 163 99 62 78 77 80 156 118 136 89 51 91 84 83 123 163 139 92 73 100 89 101 121 163 163 163 77 17 8 4 3 5 5 17 88 86 55 60 48 37 44 89 77 62 67 100 60 128 113 163 163 153 150 157 147 136 110 67 70 88 42 43 48 46 51 43 37 35 38 59 76 131 156 160 156 147 132 84 67 70 81 108 128 73 64 48 41 64 87 
73 108 125 115 55 35 36 42 43 37 31 25 109 163 163 163 163 163 144 127 67 120 163 154 66 163 128 4 42 90 80 163 163 163 163 144 48 159 113 123 84 48 84 73 77 100 155 140 105 105 109 91 104 143 163 163 161 16 3 4 5 10 22 46 102 147 89 44 48 39 33 65 95 83 70 69 88 64 110 128 142 140 125 101 100 90 72 64 70 76 92 86 108 120 112 82 59 36 43 72 101 108 139 155 156 153 147 121 75 67 71 75 108 127 68 54 44 43 64 83 
83 121 128 95 48 46 44 43 43 35 35 33 98 163 163 163 163 150 137 128 73 96 158 163 102 163 151 133 158 163 128 120 124 96 61 36 20 154 132 159 163 148 117 60 67 80 132 142 139 139 125 105 89 117 134 163 117 40 9 24 42 60 76 79 112 146 89 46 51 46 38 74 97 93 72 64 69 55 50 81 56 62 55 51 67 69 67 66 61 76 91 116 132 134 131 109 86 43 51 108 136 137 146 151 152 150 142 115 74 70 70 69 110 128 65 57 62 60 73 74 
52 84 120 86 59 59 48 44 46 40 40 48 132 163 163 163 157 121 109 112 70 80 148 163 120 105 117 105 85 57 21 3 6 4 1 3 8 147 163 163 163 135 128 81 51 65 110 133 128 128 124 124 125 140 140 147 142 76 64 83 88 89 80 73 104 131 85 56 61 59 51 77 97 98 88 68 67 51 47 60 44 32 51 48 57 61 56 51 67 78 89 121 124 124 124 118 104 61 65 112 128 136 136 136 137 132 124 112 84 83 73 72 108 121 61 57 66 66 69 71 
33 54 104 88 66 60 51 48 58 56 51 117 163 163 163 163 140 93 120 106 65 69 144 163 121 6 1 2 4 5 4 4 6 4 2 3 4 140 163 163 163 139 109 63 35 44 91 129 100 93 108 136 134 131 140 116 144 112 105 108 104 94 77 72 96 112 76 64 64 63 63 66 90 90 87 80 70 51 40 40 28 22 40 62 65 47 52 66 80 79 90 114 116 113 112 110 108 80 73 104 114 115 114 109 104 101 95 97 89 80 70 64 86 101 64 60 65 66 68 70 
24 35 87 92 68 61 54 60 76 76 64 153 147 137 140 132 89 51 101 104 62 65 152 163 117 0 2 4 4 4 3 5 5 3 3 2 3 139 163 150 151 124 56 19 57 40 64 128 81 73 110 132 131 132 136 133 119 100 109 108 106 97 78 97 121 124 77 62 64 62 74 102 108 89 87 89 88 67 27 20 20 71 82 64 64 68 70 77 71 78 89 112 116 114 112 112 112 96 82 96 104 104 100 93 93 96 80 74 77 76 70 60 79 96 69 62 66 67 70 75 
28 31 59 113 112 79 69 65 78 96 138 151 108 70 72 48 32 32 76 96 64 69 163 163 120 3 5 5 4 3 4 5 5 3 3 2 3 138 163 108 100 89 100 144 131 56 58 121 83 69 105 108 135 137 138 135 87 69 97 102 102 96 96 120 121 121 98 73 74 75 108 132 131 113 89 92 85 70 52 21 32 70 57 77 74 62 54 69 82 70 89 110 114 113 112 110 112 106 89 88 89 91 94 96 98 94 74 67 71 75 70 59 80 97 67 57 64 67 71 76 
51 29 64 163 163 102 64 60 108 163 163 134 115 92 59 28 35 31 56 92 77 83 161 160 135 23 6 5 5 4 4 6 4 3 2 2 2 128 163 92 132 154 159 155 100 69 95 117 82 64 69 40 57 87 116 119 73 50 71 74 75 73 84 96 99 105 109 92 85 92 95 98 87 100 105 81 44 55 69 56 40 47 80 69 62 54 67 58 55 63 89 106 105 104 102 102 105 101 87 87 90 94 95 96 97 90 79 78 79 81 73 62 83 98 69 64 70 70 71 72 
