P2
#Figura modificada...
120 68
255
49 52 117 110 17 9 10 11 27 53 38 16 14 23 28 57 58 68 71 71 73 76 87 91 97 100 95 58 44 64 86 69 40 29 82 93 63 47 41 65 75 64 62 89 92 64 63 99 122 140 123 98 70 59 52 41 39 46 104 106 87 76 83 82 56 46 38 56 83 61 35 39 40 189 248 255 255 255 189 164 22 27 46 38 22 43 88 53 26 40 44 29 26 37 51 33 27 58 56 27 19 34 47 37 52 33 25 37 63 87 80 23 17 33 57 91 86 21 13 17 
41 41 85 93 46 17 20 20 25 58 43 21 28 32 32 34 44 51 64 70 69 74 70 73 75 75 70 49 59 83 92 64 27 51 93 71 32 33 41 83 123 88 85 65 51 41 61 131 181 141 65 45 45 31 31 34 51 44 86 99 71 71 104 131 86 50 39 41 61 47 31 44 159 211 236 255 255 255 253 255 148 27 28 26 23 34 81 56 21 25 22 22 20 23 39 35 27 28 22 20 21 28 49 34 34 33 25 25 38 89 110 44 35 65 73 68 61 14 14 13 
68 68 75 86 74 29 28 21 45 129 82 21 31 34 35 32 28 25 26 29 29 32 31 29 31 34 45 44 52 75 74 52 37 55 52 25 29 34 32 62 91 61 65 57 39 35 40 73 145 117 57 39 23 32 26 26 39 32 38 53 43 37 52 97 64 43 39 34 41 32 25 52 255 255 255 239 255 255 255 255 244 33 31 25 53 70 46 29 32 23 23 22 23 38 33 22 22 26 28 82 88 40 33 29 25 27 25 46 86 85 79 28 35 79 86 56 27 19 41 47 
93 85 65 81 76 22 37 63 64 136 92 28 35 45 46 43 41 40 45 51 65 68 67 63 47 38 35 31 29 39 37 47 53 38 28 28 31 38 34 59 68 41 40 59 75 65 79 79 94 71 40 33 28 38 35 29 26 26 25 51 101 91 50 47 40 38 38 31 27 25 23 91 255 255 255 254 207 211 255 255 249 59 27 31 86 104 74 32 25 20 28 23 34 85 82 37 21 23 37 105 118 68 26 27 22 27 31 73 107 100 69 27 23 62 79 55 17 35 59 55 
79 76 68 88 68 16 70 131 95 122 81 43 55 50 51 62 59 57 62 71 85 88 92 82 63 51 29 21 31 37 32 50 52 50 50 41 37 39 37 79 87 53 44 57 70 93 111 95 86 52 39 34 29 53 88 70 34 38 37 61 112 105 61 40 39 37 34 29 26 28 28 97 213 255 255 243 177 218 230 172 155 43 25 39 93 94 86 55 28 26 26 25 43 98 97 57 25 23 37 97 99 81 33 27 25 23 22 65 97 88 65 22 19 26 52 34 10 34 58 49 
77 77 75 93 62 17 51 93 65 100 74 51 58 26 21 22 25 29 35 34 31 31 33 61 100 81 41 35 38 32 35 70 81 73 53 45 33 33 49 101 100 77 70 61 57 95 110 105 95 71 45 41 35 77 167 178 130 41 47 55 81 82 56 28 27 38 33 31 28 31 51 82 123 242 255 255 213 255 255 201 121 55 26 64 101 77 88 95 44 28 27 31 33 50 53 43 28 23 25 74 86 83 56 31 28 25 19 44 87 73 47 22 26 44 55 35 19 49 83 51 
73 75 75 70 47 17 19 22 28 68 55 56 62 41 46 50 56 59 63 67 68 68 69 92 140 107 34 27 31 34 40 85 86 65 44 33 28 28 59 107 109 89 67 61 68 104 121 116 111 100 65 45 134 201 239 201 149 100 74 40 34 37 35 27 26 43 38 33 33 31 70 75 107 194 255 253 213 237 227 185 147 109 46 59 92 76 61 59 37 34 34 25 38 62 49 35 46 55 43 65 64 59 53 67 93 61 20 44 103 70 23 20 46 59 43 28 22 56 86 43 
44 38 38 47 29 17 20 27 27 34 43 63 80 87 97 101 110 118 119 123 124 123 117 107 116 77 20 21 23 33 53 73 55 37 38 32 31 27 67 103 80 50 47 59 81 123 136 125 131 133 119 75 191 179 133 65 68 81 71 41 29 26 27 25 28 65 64 26 35 46 74 57 52 165 171 149 69 123 119 140 165 172 76 31 38 50 32 23 29 51 64 37 32 46 33 23 61 82 56 65 58 52 47 88 135 109 37 50 105 57 16 22 40 40 23 20 20 55 74 28 
47 49 59 125 80 29 33 38 38 39 28 25 32 39 41 43 45 47 45 49 44 41 53 81 94 40 25 25 27 43 49 49 35 32 31 32 28 33 41 50 43 46 46 55 98 141 141 130 127 136 166 215 178 116 47 65 71 58 56 40 32 26 26 28 27 68 74 28 38 47 70 33 26 43 98 69 50 63 117 148 161 165 68 31 31 31 28 21 29 39 39 29 27 28 62 109 93 67 49 64 55 49 87 182 203 143 35 71 64 25 23 73 86 46 19 16 21 35 37 63 
45 57 77 149 98 23 29 49 44 41 34 39 38 43 49 53 59 62 83 75 57 51 31 26 41 70 74 49 44 45 40 38 35 35 31 31 26 29 34 69 88 67 52 63 109 140 140 130 160 154 201 208 133 49 32 64 73 56 35 35 40 44 65 61 27 51 59 35 39 62 65 32 41 65 98 93 73 70 110 121 121 87 31 27 27 28 23 27 63 68 44 31 23 29 109 159 141 79 47 67 55 41 88 146 160 141 46 92 41 21 33 91 95 64 19 28 25 28 53 101 
61 123 107 146 98 40 55 56 65 74 88 97 95 99 106 110 115 112 129 115 111 86 37 25 53 115 113 73 46 45 31 28 28 33 35 29 35 31 44 89 99 82 59 70 106 129 130 118 122 151 163 128 55 17 57 112 110 56 29 47 52 76 128 107 47 51 58 50 55 92 100 56 74 100 101 80 61 67 109 107 89 41 20 23 32 39 34 38 95 104 67 27 23 26 92 129 119 71 38 59 52 43 70 116 109 86 51 55 23 21 31 99 93 58 28 27 33 29 61 98 
71 124 88 135 98 58 51 32 35 38 44 46 49 47 47 46 47 82 112 101 71 43 29 26 55 101 98 70 33 32 32 32 23 40 69 58 88 74 49 87 98 83 71 77 117 122 117 115 112 99 81 41 13 16 69 137 117 52 32 47 63 91 135 118 62 38 51 52 51 101 93 59 75 103 95 73 57 87 111 107 88 44 28 26 37 64 73 74 92 86 75 39 23 23 70 97 87 50 38 47 49 45 43 75 67 38 59 33 21 21 44 107 94 49 41 26 34 40 81 70 
22 38 38 106 81 53 51 33 33 35 45 47 49 51 53 57 49 62 92 75 46 35 33 28 40 74 73 46 37 40 33 31 41 79 106 80 97 93 65 104 116 89 89 105 111 104 105 110 87 43 25 28 27 35 69 112 111 81 55 80 70 99 115 82 40 35 64 70 80 99 70 40 45 79 101 94 65 110 135 105 63 38 43 53 34 45 83 83 69 63 86 61 23 26 58 83 67 32 31 47 45 43 37 39 43 34 65 56 39 55 75 101 69 39 51 44 25 46 69 68 
19 25 27 46 47 62 76 91 98 107 113 118 122 124 125 124 75 39 51 39 34 35 39 35 37 35 28 34 38 35 35 74 122 128 100 62 85 86 80 105 89 80 85 112 136 113 103 97 61 50 173 215 176 52 76 85 74 56 55 112 116 103 62 37 31 35 63 99 105 82 44 29 29 53 113 125 92 133 141 75 51 50 46 81 65 44 55 56 70 52 51 39 32 31 43 50 34 27 31 45 50 58 61 53 68 76 79 75 77 85 89 107 95 71 64 56 31 32 29 32 
38 40 37 32 32 33 38 55 56 59 69 64 61 61 62 63 47 35 28 29 39 35 37 38 37 33 33 51 45 31 46 93 123 111 75 57 71 71 74 73 59 75 74 86 124 112 88 74 58 139 235 199 187 62 87 70 40 32 49 79 77 63 34 29 28 38 71 88 59 46 37 33 28 29 83 93 88 148 143 83 93 106 64 65 73 44 43 55 57 33 29 27 32 33 26 29 32 32 25 28 46 77 70 58 77 80 68 68 91 99 97 137 133 125 87 57 22 28 29 41 
39 39 39 26 21 22 25 31 33 32 50 45 35 39 39 37 38 34 32 29 29 27 32 31 32 32 70 115 100 50 58 95 101 80 56 55 55 51 44 45 61 106 121 92 98 101 81 70 65 87 202 197 167 74 47 38 28 61 105 100 45 27 31 29 27 65 122 123 70 32 33 31 34 32 51 61 82 124 129 86 106 115 85 62 62 47 57 47 35 27 25 28 28 26 28 56 75 47 25 21 41 79 59 55 77 89 109 80 94 85 80 121 113 115 88 40 20 27 23 74 
37 41 52 56 68 83 81 83 87 71 57 58 89 104 73 35 37 35 40 39 27 23 29 32 35 35 81 125 106 58 68 106 97 71 81 59 51 57 68 57 59 109 124 97 73 75 69 71 109 104 161 136 122 105 25 27 39 92 128 109 41 21 31 33 31 88 131 110 70 39 33 33 68 63 47 47 68 98 107 89 110 110 98 77 68 73 112 81 38 25 23 33 27 28 39 75 87 65 35 27 52 77 56 47 70 100 122 95 79 64 71 105 98 87 56 32 13 19 26 79 
25 33 40 43 59 67 68 70 70 79 85 79 76 77 61 44 61 58 75 77 44 28 32 44 63 51 80 111 92 68 87 104 79 82 103 64 49 61 68 57 49 67 76 61 55 57 55 83 129 116 153 136 111 117 49 38 43 111 135 101 41 26 28 29 35 93 130 110 69 35 28 40 101 103 61 44 71 101 80 56 85 94 73 51 51 80 109 99 51 38 37 38 28 23 41 97 105 75 33 35 57 67 57 56 70 100 109 81 49 59 76 87 81 53 32 46 33 29 29 70 
19 22 23 25 27 33 34 37 39 41 57 47 33 44 68 98 100 92 97 82 50 32 29 34 40 38 70 83 55 39 68 86 61 67 85 50 40 58 49 51 46 50 47 50 55 59 58 91 119 105 155 137 124 129 77 51 86 129 129 100 71 56 35 37 52 97 122 94 53 29 29 47 99 85 45 29 68 101 71 47 62 64 55 37 41 67 87 67 44 51 93 146 141 87 43 109 131 76 28 82 136 97 79 61 50 68 81 52 28 47 52 49 41 22 20 31 37 32 26 44 
61 82 92 97 104 109 112 99 49 31 31 31 28 44 131 157 88 67 80 52 29 37 41 64 47 40 47 51 52 49 46 58 57 47 49 39 44 47 43 47 45 44 45 51 47 65 83 98 103 88 154 135 128 127 122 61 116 154 124 118 105 86 82 47 45 52 64 55 45 41 62 106 94 46 28 28 50 65 58 46 45 39 35 46 64 92 85 52 37 53 99 212 232 173 73 116 131 47 25 110 188 149 89 40 31 46 64 37 22 29 28 33 28 19 19 22 25 34 26 29 
64 85 92 93 99 98 97 83 38 32 29 32 35 44 123 158 89 46 71 68 41 28 33 55 44 39 46 87 119 106 55 45 50 45 44 43 44 45 50 47 45 50 52 77 76 65 95 95 88 86 163 143 130 116 125 75 117 133 101 106 109 63 71 51 46 63 65 64 53 40 76 107 62 27 27 27 26 38 43 41 44 45 41 58 98 116 111 56 37 79 95 203 225 178 116 127 99 25 25 77 118 106 83 31 25 27 40 32 38 32 25 25 29 22 22 21 21 28 26 21 
31 29 31 34 40 29 34 35 33 31 40 47 55 50 95 118 63 77 131 125 61 32 28 28 35 39 50 105 135 119 68 43 43 44 41 40 53 57 46 40 40 44 69 134 136 94 92 85 88 94 155 135 116 101 113 76 115 107 89 88 85 50 49 46 41 61 81 80 65 38 29 43 33 27 28 32 35 37 39 49 82 100 79 71 101 81 105 82 50 87 70 136 166 142 119 79 44 21 49 125 128 97 57 22 23 28 39 38 49 39 29 25 32 22 25 22 25 28 22 16 
95 97 92 69 86 64 71 53 32 33 35 53 57 56 59 74 43 82 119 107 61 34 26 31 37 41 47 103 127 107 65 44 44 40 39 46 95 107 64 33 34 32 76 130 122 109 93 82 88 111 149 135 116 113 111 41 43 40 85 123 101 53 34 40 41 44 79 94 80 46 26 23 25 27 40 82 80 46 34 51 104 125 101 87 91 43 61 86 75 88 56 58 117 125 99 49 29 25 67 134 125 103 47 22 21 41 34 52 112 94 40 25 23 22 22 21 26 29 20 15 
88 89 83 88 106 87 80 45 27 23 32 55 88 86 53 49 39 62 92 80 56 55 46 35 49 51 46 76 97 70 43 43 38 40 39 53 106 119 71 38 34 35 75 119 115 107 79 74 81 125 142 134 122 98 97 29 23 26 95 136 121 74 39 43 44 41 77 113 97 52 23 23 25 22 52 113 100 57 55 69 94 110 89 69 64 27 26 58 80 76 45 46 98 139 104 71 28 23 51 113 107 75 34 26 21 31 28 57 121 101 45 26 20 19 20 28 31 26 26 25 
32 34 47 67 82 82 85 65 65 47 32 51 97 100 64 61 89 83 92 65 81 107 94 93 92 63 39 43 43 29 28 33 34 33 37 40 82 103 64 31 63 119 113 128 142 101 67 49 44 89 135 133 115 88 97 61 32 26 82 118 98 69 50 58 47 40 47 74 59 37 43 47 29 26 56 104 83 55 87 81 67 74 45 31 34 34 61 76 76 71 130 125 83 128 103 124 86 38 37 64 63 38 33 33 45 69 58 80 113 86 35 31 27 22 20 39 43 38 47 93 
109 101 82 77 76 98 111 91 87 103 52 59 112 98 73 73 124 121 131 105 110 119 112 133 105 47 32 31 33 28 26 32 49 47 47 62 73 56 34 31 149 214 166 149 164 134 121 68 29 53 133 130 131 121 112 134 110 50 59 79 57 40 52 95 85 46 38 32 27 26 45 67 62 27 44 82 58 68 119 77 41 39 28 27 31 33 80 124 113 110 181 145 70 124 130 157 124 68 49 37 37 34 33 31 49 58 75 106 87 58 28 33 53 46 26 86 103 75 37 94 
116 113 111 101 99 107 101 87 85 117 63 53 92 64 37 97 139 131 129 128 125 122 115 99 64 35 40 56 55 33 28 27 65 64 67 105 99 43 38 105 202 207 167 178 178 154 135 88 34 19 119 124 133 128 122 147 140 68 52 64 65 62 47 76 83 45 38 34 31 34 44 50 65 37 34 82 59 51 71 43 29 32 31 28 46 58 57 111 127 148 193 145 104 134 115 127 113 56 73 38 33 31 28 26 40 35 97 141 69 85 85 35 43 62 23 89 122 59 23 50 
50 98 113 105 101 101 101 97 81 107 58 43 53 40 50 116 136 142 133 137 119 121 133 106 50 34 45 98 100 56 32 27 59 56 83 125 109 52 46 175 214 206 209 206 163 131 124 89 39 62 95 129 140 115 105 182 146 61 52 76 86 83 53 43 40 33 34 35 33 55 79 62 43 35 29 52 57 82 61 32 27 31 32 33 83 107 86 99 131 165 184 164 146 134 104 85 82 56 74 37 67 94 70 34 26 21 64 123 107 160 159 98 31 43 27 105 111 37 61 110 
104 111 103 94 92 97 104 89 75 92 50 91 104 89 89 117 110 128 110 111 106 128 127 107 55 40 63 130 133 94 39 26 61 53 104 130 106 53 67 188 214 207 172 124 76 75 71 93 69 81 97 135 119 137 130 173 206 47 43 73 106 107 61 32 27 28 33 34 35 88 122 92 49 26 31 34 81 117 101 67 32 33 25 28 88 119 109 104 130 159 177 167 158 139 119 103 86 73 99 47 109 151 133 63 29 21 45 107 112 143 131 127 47 38 31 80 64 25 98 142 
110 106 86 97 94 98 104 76 68 63 33 91 110 89 79 97 69 105 109 115 122 128 109 104 79 50 59 111 117 88 73 45 49 56 89 99 79 43 57 165 211 188 92 40 40 52 37 105 75 46 128 159 231 224 203 201 224 250 188 148 124 124 77 28 28 31 34 34 34 80 115 83 39 26 26 52 105 116 115 87 38 26 25 35 82 104 95 89 119 145 171 163 139 121 112 101 93 79 76 62 131 155 143 83 34 29 37 73 82 118 104 91 52 35 29 29 25 28 105 125 
71 92 94 95 81 74 88 112 133 116 57 64 80 53 40 69 74 104 121 121 113 94 88 98 104 74 79 110 110 107 115 105 99 81 70 97 93 58 31 89 153 128 46 28 39 53 34 111 74 85 206 217 229 215 203 188 232 255 255 223 112 146 139 27 52 79 44 40 39 50 62 35 28 26 26 68 115 105 80 55 32 34 32 38 51 53 65 74 77 110 149 137 106 86 87 83 88 87 64 59 107 131 119 70 38 39 46 43 65 97 73 40 43 40 46 31 32 35 91 115 
41 65 109 101 89 70 152 224 241 188 68 53 39 27 34 52 95 125 119 103 87 98 128 95 74 75 87 106 97 122 123 123 133 101 79 142 122 53 28 43 125 100 37 26 44 63 38 160 211 208 212 248 213 209 190 173 238 181 193 181 13 117 238 83 104 183 118 49 38 34 25 20 28 28 32 41 58 65 38 27 27 50 68 49 43 39 62 61 39 58 109 117 122 113 116 103 110 85 64 51 59 100 86 43 34 44 77 62 45 44 34 29 29 34 81 86 38 38 85 94 
44 51 97 115 139 107 182 253 255 170 44 46 33 44 55 43 79 135 118 73 68 105 124 103 74 68 76 91 56 112 116 101 91 69 71 153 118 50 26 33 74 57 26 22 29 44 153 223 179 253 209 179 232 231 206 175 155 87 221 206 21 154 255 214 77 159 141 52 33 29 26 28 27 26 28 31 40 77 125 91 38 35 64 57 46 51 81 89 57 45 109 134 136 131 124 106 87 93 79 40 35 38 35 33 37 47 74 80 44 38 43 34 28 29 63 111 62 41 50 61 
92 71 80 127 158 112 146 215 221 119 39 35 39 94 107 68 75 123 86 59 58 86 105 82 52 56 76 93 69 115 91 94 83 58 85 171 121 38 22 43 58 49 28 23 25 37 227 32 71 226 179 134 232 230 209 197 189 45 230 214 73 160 255 245 99 93 87 39 29 28 27 33 27 28 31 34 37 111 170 140 58 22 28 35 37 74 127 135 93 44 87 123 129 118 106 91 105 139 117 55 27 21 25 33 44 86 88 59 34 53 47 34 29 29 40 80 52 43 40 45 
136 99 128 187 169 175 135 133 130 59 31 32 47 118 137 110 105 147 95 63 51 46 55 41 38 40 56 65 82 112 76 117 112 65 89 182 146 73 28 58 74 59 43 23 52 141 255 112 38 178 184 154 225 221 215 194 214 141 185 183 91 71 255 248 105 87 44 22 26 32 47 82 77 41 32 32 34 110 151 134 74 28 35 35 51 121 139 129 98 43 73 105 118 116 104 86 107 133 112 68 33 21 27 38 63 137 141 91 45 68 65 34 40 83 77 50 39 45 46 63 
128 115 129 163 125 149 117 117 86 45 28 29 61 109 117 99 101 149 107 49 44 41 38 46 75 80 45 32 79 97 75 147 140 79 49 135 116 65 35 82 115 94 76 47 80 212 255 199 19 190 245 197 229 218 217 197 213 207 205 184 19 40 245 217 106 77 31 26 26 29 83 136 122 61 27 31 34 97 135 106 47 46 77 61 56 135 139 105 62 33 63 103 118 113 95 71 73 94 76 46 44 62 32 32 63 143 142 113 47 61 67 40 59 121 130 75 51 73 47 67 
113 134 98 105 87 77 118 134 97 52 63 76 74 97 91 63 88 104 80 44 38 34 59 85 64 59 65 57 63 67 75 149 125 67 61 104 82 27 29 86 115 119 110 65 61 229 255 157 9 209 195 229 231 224 215 200 176 172 176 154 28 173 217 137 106 65 41 45 31 27 85 128 105 100 80 70 41 56 71 46 28 34 55 58 45 111 117 64 32 27 35 64 87 91 71 85 115 99 86 45 83 121 38 40 56 100 113 111 93 65 58 38 77 103 89 83 80 88 53 59 
83 73 44 79 103 77 107 101 52 37 76 101 68 56 41 39 46 51 50 41 33 37 50 9 5 7 7 26 50 43 61 106 76 44 81 112 88 38 46 88 116 109 64 41 40 224 243 91 7 187 248 227 239 236 201 119 62 88 185 172 166 255 188 128 77 39 35 39 37 33 59 113 134 68 69 95 67 43 31 26 25 25 33 55 35 45 46 27 25 25 25 50 94 80 57 141 178 130 83 39 46 71 58 104 94 65 89 99 122 93 44 31 35 38 40 68 70 79 43 56 
77 34 31 56 76 47 51 39 34 50 45 75 51 35 35 38 41 82 94 58 35 34 14 5 5 4 4 10 29 56 116 105 51 49 52 93 95 46 74 131 123 71 47 40 176 220 230 63 9 182 251 242 239 173 74 57 70 70 195 255 255 255 182 161 34 31 26 33 38 40 82 221 183 55 22 41 95 81 41 31 27 25 26 33 29 22 29 28 25 28 28 56 100 73 74 176 190 149 82 39 39 37 91 128 91 101 116 105 110 94 52 28 17 22 33 65 41 39 35 41 
46 29 23 34 43 40 33 70 146 155 100 51 45 34 29 31 59 133 142 85 28 26 11 7 7 4 4 11 34 111 166 107 49 89 92 82 76 56 97 105 89 82 50 40 191 225 242 107 8 159 255 226 136 73 59 75 65 63 134 255 255 255 255 219 35 37 23 26 81 189 197 200 139 56 38 26 32 59 62 31 27 26 31 31 27 23 38 34 33 25 43 97 110 63 69 141 201 178 71 41 38 44 85 99 70 112 111 105 106 85 37 23 17 19 37 49 33 27 29 22 
91 64 29 35 44 34 46 118 170 169 127 41 34 34 31 31 71 130 122 82 32 31 15 9 7 4 5 17 44 106 164 113 88 136 125 125 113 104 122 81 100 106 62 40 173 225 249 149 5 86 191 91 76 65 71 70 64 64 82 243 255 255 236 142 44 37 22 28 145 218 224 214 107 46 23 16 27 39 63 29 25 31 68 68 57 29 25 28 26 22 75 140 141 80 61 124 197 175 46 37 34 65 65 37 75 115 109 95 101 77 32 21 21 28 80 65 31 31 22 16 
118 89 38 44 64 68 101 131 135 134 117 76 49 37 33 49 89 105 99 63 57 49 14 7 5 4 5 19 39 97 160 99 121 146 129 135 136 136 130 70 93 111 71 39 163 203 255 173 62 41 184 59 62 74 65 55 63 61 61 242 255 255 154 44 51 37 25 63 201 229 250 194 117 59 26 15 15 19 50 28 21 87 179 149 135 85 38 26 22 23 93 153 141 98 57 153 206 169 45 33 44 115 100 43 83 101 95 91 99 93 46 22 22 43 122 100 29 21 17 21 
104 76 40 70 123 141 189 182 134 121 109 105 86 56 37 47 91 97 74 47 32 31 23 10 13 13 13 22 26 58 97 101 129 116 104 99 121 134 118 76 44 58 39 38 251 255 255 215 154 49 148 52 61 57 64 67 55 49 76 236 255 243 74 82 106 50 34 152 217 225 214 188 159 46 20 4 7 14 29 21 19 188 239 217 190 176 43 31 26 31 75 135 117 64 49 122 155 131 53 45 57 123 99 52 91 104 104 91 117 136 73 35 31 38 116 88 25 22 29 46 
100 52 40 73 135 149 158 148 107 93 73 82 91 111 73 39 81 91 43 25 22 25 25 23 29 34 25 50 51 53 83 134 110 70 67 86 116 118 88 57 39 33 37 43 248 255 255 255 229 255 197 57 64 59 50 43 49 53 145 208 229 170 65 75 87 37 63 158 199 196 189 220 189 32 9 4 4 14 28 32 43 172 220 164 169 149 67 52 37 44 37 81 58 35 41 58 71 103 94 68 39 61 56 52 85 94 97 79 131 141 98 93 76 45 61 55 23 23 47 106 
57 34 38 41 99 141 109 107 118 91 101 89 85 124 81 34 59 49 27 28 25 29 44 51 146 211 248 255 255 146 71 105 79 52 53 97 112 80 52 43 44 43 41 51 239 253 255 255 255 255 169 88 64 67 63 62 62 53 106 113 31 38 49 46 50 32 44 79 136 148 201 163 92 10 7 4 13 19 21 45 77 181 188 164 181 188 80 73 46 43 33 43 38 34 37 61 58 91 88 33 27 29 31 28 41 74 118 86 80 170 220 188 104 35 20 22 29 57 45 97 
39 37 50 63 94 140 149 167 151 146 220 170 92 100 55 26 27 29 39 40 26 22 83 255 255 255 245 190 116 87 43 55 74 194 208 179 116 53 40 39 41 44 38 31 212 245 245 214 171 119 111 77 63 45 38 28 34 58 57 112 61 76 87 175 221 208 185 195 193 201 190 143 81 11 5 25 47 43 34 62 122 220 166 201 208 190 141 83 50 45 37 68 79 47 34 39 41 53 38 31 45 75 46 22 33 98 124 81 37 143 207 173 89 27 19 20 115 161 115 75 
40 45 74 82 88 164 207 153 136 188 215 159 99 69 35 21 32 55 92 86 43 22 157 203 139 62 9 10 33 98 145 141 38 143 255 255 239 67 35 67 61 40 46 34 158 146 89 88 92 92 74 55 49 69 76 77 116 77 83 111 140 160 183 201 164 143 123 160 197 215 189 155 100 28 19 73 127 115 61 70 92 184 172 165 172 181 175 62 40 40 51 116 123 74 35 33 28 31 26 39 103 135 100 44 59 116 123 119 130 122 130 89 53 32 21 31 130 154 128 86 
41 53 99 105 79 143 179 128 137 152 140 121 98 55 26 19 31 68 129 118 85 93 51 10 50 116 147 172 208 217 226 226 154 20 255 255 255 197 56 79 49 63 75 65 64 82 82 81 82 75 45 49 58 63 68 103 122 107 121 147 165 194 130 159 87 99 86 69 122 196 211 170 119 94 31 94 135 119 74 69 75 193 179 178 171 161 91 33 35 44 61 129 129 87 40 28 31 32 26 38 129 142 125 82 89 122 167 211 214 157 130 116 83 111 127 122 133 118 109 94 
47 106 155 139 88 113 123 107 151 149 127 103 97 82 53 28 31 65 147 241 151 11 137 182 227 194 213 227 220 218 202 178 136 9 201 255 227 255 177 137 159 77 64 75 82 82 81 81 82 56 46 57 73 71 92 121 112 121 149 136 200 159 143 133 127 82 62 57 80 117 136 145 127 94 57 91 118 104 86 86 74 148 171 151 145 166 91 61 38 34 47 100 100 64 38 55 128 135 57 82 129 125 136 113 104 117 154 176 175 129 115 110 115 170 209 209 179 115 115 140 
115 171 170 121 100 154 152 128 175 157 104 79 80 83 110 92 71 155 255 255 244 9 123 233 188 211 196 139 107 95 11 34 50 11 121 255 223 220 255 230 163 75 81 83 82 79 77 81 73 61 73 77 75 79 127 115 106 142 157 134 164 159 153 110 127 112 58 49 64 86 92 100 112 117 94 56 70 64 67 81 94 155 118 115 161 182 147 155 122 79 86 56 40 34 43 93 160 171 99 143 131 121 135 67 68 99 125 177 148 61 61 83 98 109 169 200 166 89 98 159 
160 190 146 80 109 153 148 151 159 110 81 92 124 106 113 131 128 255 255 255 255 103 17 142 109 57 13 8 8 133 245 255 255 225 38 255 254 141 255 255 152 79 82 82 81 81 80 75 62 74 80 77 53 93 122 92 125 143 149 140 154 129 117 111 103 127 89 63 75 82 86 107 123 131 119 43 43 50 61 86 142 197 214 188 187 153 135 107 135 105 134 119 47 45 35 56 123 148 107 165 91 123 112 45 41 94 145 161 133 55 74 105 112 128 165 169 146 112 105 127 
149 142 88 70 109 136 115 134 145 100 99 117 146 127 118 136 158 255 255 255 255 202 9 51 164 232 253 185 8 238 255 148 185 255 82 229 255 64 190 255 255 111 79 80 80 79 77 65 58 81 80 58 58 119 115 109 133 149 158 140 107 149 153 107 106 97 110 106 105 109 94 98 117 166 173 50 107 152 147 125 128 161 176 164 143 112 56 47 55 75 118 157 151 67 40 76 123 105 141 160 75 145 88 40 31 68 106 109 101 74 82 133 149 141 158 167 155 140 117 113 
149 118 74 69 99 118 92 118 143 124 110 99 118 97 113 116 232 255 221 255 255 245 15 247 255 232 223 255 67 205 255 15 105 255 143 193 238 53 27 239 255 247 65 56 59 69 74 52 68 70 67 55 75 143 111 122 160 130 128 113 128 140 163 130 116 92 83 91 124 119 115 117 110 154 141 107 158 142 148 206 161 129 141 110 101 110 46 101 128 79 131 133 124 137 101 97 140 112 157 152 97 151 67 40 33 55 73 51 41 67 92 155 147 140 164 166 147 129 93 116 
176 118 69 68 81 97 64 64 89 111 97 86 89 71 71 57 255 255 158 171 255 255 73 255 232 11 109 255 155 142 255 98 38 255 190 149 238 82 10 98 255 255 190 23 35 45 61 21 57 69 71 63 82 140 116 129 113 112 104 111 128 107 104 92 71 83 58 73 94 160 209 170 80 28 58 161 155 140 160 226 169 128 127 87 73 86 146 206 205 201 166 94 143 151 172 178 152 105 142 148 107 155 77 49 39 58 64 37 29 56 87 135 128 140 152 129 105 94 85 129 
169 123 62 56 71 87 58 53 59 75 70 69 65 58 55 95 255 255 105 65 255 255 166 208 255 33 28 255 217 65 255 176 7 237 221 99 241 145 9 14 193 255 255 128 14 34 33 9 31 50 81 100 119 128 113 99 116 85 68 75 67 57 52 56 20 46 46 34 82 151 166 64 55 93 110 158 145 135 143 190 116 123 115 93 85 70 131 147 173 171 211 155 116 130 124 131 157 141 117 127 107 143 82 67 83 109 110 88 62 89 116 129 169 199 139 119 82 74 113 143 
117 105 65 52 63 64 51 52 58 62 61 56 56 51 55 184 255 255 40 5 218 255 223 134 255 118 5 236 255 9 225 172 8 223 235 35 233 155 59 11 133 255 255 255 178 142 111 73 77 95 105 104 107 109 103 97 99 85 79 61 41 41 53 33 9 8 37 39 40 65 28 62 130 139 173 137 129 93 209 255 177 130 83 122 131 86 98 81 71 46 77 67 47 69 80 95 112 134 122 75 82 106 95 159 203 221 225 215 175 139 131 131 179 214 122 118 116 112 157 140 
81 74 53 52 53 52 49 52 64 68 73 56 59 57 56 251 255 230 13 7 202 255 255 57 255 185 7 207 255 38 7 5 104 255 191 8 219 165 104 125 255 255 255 255 255 255 255 190 119 85 103 106 100 93 93 92 77 64 39 29 46 40 58 53 16 9 8 9 10 10 68 130 140 163 185 121 125 88 143 173 166 153 125 146 146 77 70 53 13 10 10 26 25 19 34 47 64 99 122 94 62 74 155 232 251 254 255 253 220 152 123 127 171 209 118 115 133 149 159 125 
67 61 52 53 55 55 50 53 68 64 58 50 56 57 80 255 255 154 9 40 205 255 255 111 123 65 29 253 255 13 7 89 255 255 63 5 201 191 148 172 223 229 233 251 255 255 229 109 109 92 91 83 80 71 70 137 177 134 117 23 33 16 27 26 16 11 10 9 8 62 135 134 133 173 165 118 129 79 118 140 146 172 203 194 184 127 98 40 9 9 11 46 43 32 23 17 21 39 82 121 68 99 190 247 253 255 255 248 212 139 121 127 170 205 117 122 143 141 163 135 
56 53 52 55 56 55 51 49 53 46 46 50 52 67 153 255 255 62 5 125 196 255 255 167 4 9 205 255 158 5 17 241 255 97 5 5 178 218 171 195 172 184 202 185 207 255 255 177 83 74 68 59 95 167 254 255 255 255 255 137 61 10 15 10 10 8 7 13 69 107 131 117 119 169 153 116 113 45 107 112 119 169 206 250 237 119 107 79 65 28 34 55 55 56 47 43 22 17 22 55 67 113 199 244 251 254 244 232 193 135 117 135 172 202 112 130 157 130 149 137 
53 55 52 55 55 53 52 50 49 47 41 43 45 75 243 255 248 10 7 154 129 238 255 197 5 153 255 195 8 8 88 255 163 9 5 5 159 235 182 223 212 161 179 155 151 243 212 142 115 83 118 131 153 188 255 255 255 255 171 92 31 8 8 8 7 8 34 76 93 98 95 75 117 141 136 111 129 76 149 170 140 137 202 169 196 191 197 202 105 95 98 44 52 58 51 50 50 47 44 47 74 110 200 244 251 249 232 219 161 124 109 133 170 200 116 130 129 106 129 136 
71 97 115 119 75 55 53 53 57 53 41 38 53 185 255 255 243 124 43 163 109 218 255 217 25 254 249 25 8 8 91 255 155 98 123 122 125 244 185 213 141 81 143 133 130 193 255 218 146 116 158 140 159 191 255 255 255 122 28 13 7 5 9 9 28 139 135 87 94 76 59 71 140 122 98 105 158 95 202 178 255 255 241 236 247 231 214 173 105 110 139 67 68 76 73 80 68 59 55 61 93 119 205 244 250 244 231 207 133 106 110 128 169 200 115 101 75 65 101 137 
115 170 197 181 87 55 58 67 68 59 49 41 172 255 255 255 255 255 225 199 105 189 255 242 104 255 202 8 67 142 127 255 255 255 255 227 75 249 178 193 133 75 133 116 122 157 243 220 166 165 172 143 164 224 255 255 253 27 5 8 9 17 35 73 160 230 141 71 77 62 53 103 149 131 110 109 139 101 173 202 223 219 197 159 158 142 113 101 111 119 145 135 171 188 177 129 93 58 68 113 159 171 218 243 245 241 231 191 118 106 112 118 170 199 107 85 71 68 101 131 
130 191 200 149 75 73 70 68 68 56 55 53 154 255 255 255 255 235 215 200 116 152 248 255 160 255 237 209 248 255 201 188 196 152 97 58 32 242 208 249 255 232 184 95 106 125 207 223 218 218 197 165 141 184 211 255 184 64 16 39 67 95 121 124 175 229 140 73 80 73 61 117 153 147 113 101 109 87 79 128 88 98 87 81 105 109 105 104 97 119 143 182 207 211 205 172 136 68 81 169 213 215 229 237 239 236 223 181 117 110 110 109 173 200 103 91 98 95 116 117 
82 133 188 135 93 93 77 70 73 64 64 77 208 255 255 255 247 191 172 175 110 125 232 255 189 166 184 165 134 91 34 5 10 7 3 5 13 230 255 255 255 212 200 128 80 103 173 209 201 201 195 194 197 220 221 230 223 121 101 131 139 141 125 116 164 206 134 89 97 93 80 122 153 154 139 107 106 80 74 95 69 52 81 77 91 97 89 80 105 123 141 191 195 196 196 185 163 97 103 177 200 213 213 213 215 208 196 175 133 130 116 113 169 191 97 91 104 104 109 112 
53 85 163 139 104 94 80 77 92 88 81 184 255 255 255 255 219 147 188 167 103 109 227 255 191 10 3 4 8 9 7 8 10 7 4 5 8 220 255 255 255 218 172 99 55 69 143 203 157 147 171 213 211 206 219 183 225 177 166 169 164 148 122 113 152 176 121 100 100 99 99 104 142 142 137 125 111 80 64 64 45 35 63 98 103 74 83 104 127 124 142 179 182 178 177 173 169 127 115 163 179 181 179 172 164 159 149 153 140 127 111 101 135 159 101 95 103 104 107 111 
38 56 137 145 107 97 86 94 121 119 101 241 231 215 220 207 140 81 159 164 98 103 238 255 184 2 4 7 8 7 5 9 9 5 5 4 5 218 255 236 237 195 88 31 91 63 101 202 128 116 173 208 206 207 213 209 187 158 172 171 167 153 123 153 190 195 122 98 100 98 117 161 171 140 137 141 139 106 43 33 33 112 129 101 101 107 110 122 112 123 141 176 182 179 176 176 177 152 129 151 163 163 157 147 147 151 127 117 122 119 111 94 124 151 109 98 104 106 110 118 
46 49 93 178 177 124 109 103 123 151 217 237 169 110 113 76 52 52 119 151 100 109 255 255 189 5 9 9 8 5 7 9 9 5 5 4 5 217 255 170 158 140 157 227 206 88 92 191 131 109 166 170 212 215 217 212 137 109 153 161 160 151 151 188 191 190 154 116 117 118 169 208 205 178 141 146 134 110 82 34 52 110 91 122 117 98 85 109 129 110 141 173 179 178 177 173 176 167 140 139 140 143 148 152 154 148 117 106 112 118 110 93 127 153 106 91 100 105 112 119 
81 47 100 255 255 160 100 94 170 255 255 211 181 145 93 45 56 49 88 146 122 130 253 251 212 37 10 9 9 7 8 10 8 5 4 4 4 202 255 146 207 242 249 243 158 109 149 184 129 101 109 63 91 137 182 187 115 79 112 117 118 116 133 152 155 166 172 146 134 145 149 154 137 158 165 128 71 87 109 88 64 74 125 109 98 85 106 92 87 99 140 167 165 163 160 161 165 159 137 137 142 148 149 152 153 142 124 123 124 128 115 98 131 154 109 100 110 110 112 113 
