P2
#Figura modificada...
120 68
255
41 15 11 18 72 76 48 28 15 20 67 73 53 31 21 28 44 31 40 29 16 23 47 49 23 28 43 31 22 25 37 34 22 45 74 36 19 32 39 23 19 137 158 213 247 228 207 158 34 33 30 51 70 47 32 39 47 69 70 64 73 89 87 39 33 35 44 50 59 82 103 117 102 83 53 54 77 75 52 54 63 55 35 40 53 78 69 25 34 58 72 54 37 49 80 84 81 76 73 64 61 60 60 57 49 48 24 20 12 14 32 45 23 10 9 8 15 92 98 44 
35 11 12 12 51 57 61 55 30 37 92 75 32 21 21 28 29 29 41 24 18 17 19 24 23 30 33 20 17 19 19 21 18 47 68 29 20 22 24 23 124 221 211 234 252 251 197 176 133 37 26 40 51 35 33 42 72 110 87 60 60 83 72 37 43 29 26 26 38 38 55 118 151 110 51 35 43 55 71 74 103 70 35 28 27 60 78 43 23 54 77 70 50 41 59 63 63 61 59 62 58 59 54 43 37 29 27 27 24 18 36 49 21 17 17 15 39 78 71 35 
57 40 35 16 23 47 72 66 30 24 66 71 72 39 21 23 21 25 28 34 74 69 24 22 19 19 28 32 20 19 20 20 27 25 39 59 45 21 26 28 204 246 244 215 227 200 250 244 218 44 21 27 35 29 33 36 54 81 44 31 36 45 32 27 33 22 22 27 20 33 48 98 121 61 34 30 33 48 55 51 76 52 27 29 25 21 44 46 31 44 62 63 44 37 38 29 26 25 26 27 25 25 22 21 24 27 30 29 26 18 69 108 38 18 24 25 62 72 63 57 
78 46 50 30 15 46 66 52 20 23 58 84 90 61 26 23 19 23 22 57 99 88 31 20 18 31 69 71 29 20 24 17 21 27 62 87 72 26 23 50 208 237 235 176 173 212 248 247 226 76 20 21 23 26 32 32 34 40 42 76 85 43 21 22 22 25 30 32 24 28 34 60 79 66 66 55 63 50 34 35 57 50 29 32 26 24 24 32 45 40 31 33 25 26 30 32 40 53 56 57 55 43 38 34 35 36 39 38 30 24 77 114 54 53 31 19 64 68 55 71 
66 41 49 29 9 29 44 22 16 19 55 74 81 55 19 20 21 23 28 68 83 81 31 20 21 48 81 82 36 21 22 22 24 46 72 79 78 33 21 36 130 144 192 182 148 203 238 236 178 81 24 24 22 25 29 31 33 34 51 88 94 51 31 32 29 59 74 45 25 29 33 44 72 80 93 78 59 48 37 45 73 66 31 33 31 35 42 42 44 42 27 31 26 18 25 43 53 69 77 74 71 60 52 48 50 52 43 42 46 36 68 102 80 110 59 14 57 74 57 64 
65 43 70 41 16 30 46 37 22 19 40 61 73 37 16 21 24 26 47 70 72 62 21 20 24 36 45 42 28 26 23 24 37 80 74 65 85 54 22 46 101 168 215 224 178 231 236 202 103 69 43 26 24 26 28 32 23 24 47 69 68 46 40 35 109 149 140 65 30 35 38 60 80 88 92 80 48 51 59 65 84 85 41 28 28 38 45 61 68 59 30 27 32 30 35 68 84 51 28 26 26 29 30 25 21 19 18 22 49 43 62 84 55 78 43 15 52 78 63 65 
61 36 72 47 19 24 36 50 39 17 20 59 86 37 17 51 78 56 45 50 54 55 36 46 39 30 41 52 32 21 29 29 31 50 51 64 77 50 39 91 123 155 190 198 178 211 213 162 90 63 59 26 28 28 32 36 22 23 30 31 29 34 62 84 125 168 200 168 112 38 55 84 93 97 101 87 57 51 56 75 91 90 50 24 24 28 37 55 72 71 34 29 26 23 29 90 117 77 58 57 57 56 53 50 47 42 39 35 52 47 46 57 24 19 16 15 40 59 63 63 
37 24 62 46 17 17 20 34 34 19 14 48 88 42 31 91 113 74 40 44 49 55 47 69 51 20 28 39 27 31 54 43 25 20 27 42 32 26 64 144 138 117 100 103 58 125 143 138 44 48 62 39 30 22 54 55 24 21 23 22 25 35 60 68 57 55 111 150 160 63 100 111 110 105 114 103 68 50 40 42 67 86 56 23 26 27 32 31 46 61 45 28 20 18 17 65 97 90 98 103 104 103 100 99 92 85 81 73 67 53 36 29 23 23 17 15 25 40 32 32 
40 53 31 30 18 14 16 39 72 61 20 21 54 60 30 120 170 152 73 41 46 54 41 56 78 91 52 24 23 25 33 33 25 18 24 26 26 26 57 138 135 124 98 53 42 58 82 36 22 28 59 40 32 24 62 57 23 24 22 22 27 34 47 49 60 55 40 97 149 180 139 114 106 109 118 118 82 46 39 39 36 42 35 28 24 27 26 27 30 41 41 36 23 21 21 34 79 68 45 35 37 41 38 40 38 36 35 33 27 21 24 33 32 32 28 25 67 105 50 41 
38 85 45 24 21 24 16 54 80 76 28 18 35 77 39 118 134 122 74 35 46 56 40 66 118 133 91 25 20 26 37 57 53 23 20 24 23 23 26 73 101 101 92 59 61 78 82 55 35 27 55 52 33 30 50 43 23 51 55 37 34 30 30 47 61 54 27 41 111 174 168 129 134 109 117 117 91 53 44 56 74 58 29 25 22 26 26 30 30 32 34 38 37 41 62 59 35 22 26 43 48 63 70 52 50 45 41 36 32 33 29 35 37 41 25 20 82 125 65 48 
51 82 51 25 28 23 24 49 78 83 26 18 20 46 43 72 91 97 59 36 44 50 32 60 100 108 77 22 20 23 56 87 80 32 29 33 27 20 17 35 75 90 91 56 51 67 85 84 62 47 84 77 46 42 49 43 40 90 107 64 44 40 25 47 92 94 48 15 46 107 136 126 102 99 109 108 89 59 50 69 83 75 37 26 30 25 30 28 24 24 26 38 39 61 95 96 45 21 31 72 93 96 108 94 96 92 89 83 80 81 74 62 55 47 46 34 82 122 90 103 
60 59 68 34 29 22 35 41 79 90 37 18 18 28 50 32 56 63 36 38 41 40 32 42 73 81 59 20 20 33 63 72 77 62 61 54 31 22 24 37 74 90 93 73 48 61 80 86 63 50 78 85 43 44 43 32 52 99 113 76 53 40 27 44 98 115 58 14 11 35 68 83 94 96 98 102 98 65 60 70 82 73 41 62 74 49 58 34 20 27 27 27 28 59 82 85 46 22 25 36 60 85 94 69 40 39 40 40 41 39 37 32 30 27 43 49 82 113 74 104 
19 57 58 39 21 37 43 33 58 85 63 46 33 47 55 29 36 33 31 36 38 40 26 27 56 70 49 22 20 51 72 53 58 70 70 38 29 45 36 32 53 88 113 92 55 79 85 66 38 34 59 83 67 59 54 30 34 69 96 83 59 67 46 68 93 94 58 30 23 24 21 36 73 92 88 87 93 88 75 75 97 87 55 78 81 67 89 66 35 26 28 34 31 39 61 62 34 24 28 30 39 63 77 52 41 48 45 43 41 40 38 30 28 28 43 45 68 89 32 32 
16 27 25 27 26 47 54 60 80 90 75 71 65 63 66 64 57 45 51 49 42 38 26 23 29 42 36 26 27 33 43 44 59 47 46 37 55 68 39 42 43 63 118 111 77 105 95 45 25 25 37 69 88 83 53 30 26 31 52 86 97 94 46 47 62 71 64 44 147 180 145 42 51 81 86 95 114 94 71 67 75 88 67 72 71 52 84 107 102 62 30 30 32 29 24 30 31 30 33 30 29 33 43 33 63 104 105 104 102 99 95 90 82 76 64 52 40 39 23 21 
32 35 25 24 19 48 73 105 111 115 81 83 76 57 57 67 65 49 59 65 39 24 21 27 27 25 22 28 27 23 25 28 48 46 36 37 61 55 54 89 78 70 120 124 74 78 70 25 24 28 31 39 50 74 60 32 24 25 29 53 65 66 41 27 34 59 73 52 156 166 196 116 49 62 74 94 104 72 62 63 50 61 62 60 60 48 63 93 103 78 39 26 38 43 28 28 31 32 31 30 33 25 24 30 40 53 52 51 51 54 58 50 47 46 32 28 27 27 31 34 
33 62 20 23 17 34 74 96 95 101 67 71 79 67 91 75 65 46 50 66 35 18 21 40 63 47 24 22 24 24 21 23 30 40 48 40 52 52 71 96 89 72 108 104 69 51 43 27 29 26 28 27 59 103 102 55 23 25 26 23 38 84 88 51 24 32 40 62 140 165 169 73 55 59 68 85 82 77 101 89 51 38 37 43 46 46 47 67 85 80 49 42 84 96 59 27 27 26 27 23 25 25 27 29 32 31 33 33 30 38 42 27 28 26 21 19 18 22 33 33 
31 66 22 16 11 27 47 73 82 88 60 54 66 80 102 84 59 40 47 65 44 23 30 55 73 63 33 24 23 28 20 21 32 68 94 61 57 65 82 92 92 75 90 82 57 40 40 53 57 28 28 33 59 92 110 74 26 28 26 18 35 91 107 77 33 23 21 88 102 114 135 87 91 60 58 63 61 81 104 91 50 48 57 48 43 50 68 60 81 89 57 49 89 105 68 30 30 27 25 20 23 33 34 30 31 30 61 87 75 49 48 60 73 70 68 70 57 47 44 35 
21 59 25 25 28 39 27 45 68 73 64 50 41 68 91 84 59 47 48 56 48 30 28 63 88 81 35 20 24 32 31 32 43 83 91 67 43 43 61 79 71 47 67 85 60 37 51 86 85 34 24 30 58 92 109 78 30 25 24 22 35 85 113 93 36 32 41 98 93 114 128 97 108 70 46 48 46 51 64 56 41 48 57 51 41 54 86 69 66 87 73 57 77 93 67 43 53 37 27 24 37 65 63 49 51 37 51 65 64 66 71 66 59 59 57 56 50 36 34 28 
16 37 22 27 31 26 17 19 35 41 44 40 24 44 68 57 42 51 66 81 114 69 24 64 110 91 36 73 118 122 78 43 37 56 73 56 35 31 46 54 52 40 60 85 57 25 38 71 83 40 25 25 45 79 102 81 44 31 30 47 60 84 108 108 72 43 65 108 104 115 130 88 100 76 49 50 46 42 40 42 39 43 41 49 34 42 71 56 51 72 57 33 46 70 59 32 34 29 25 27 42 69 81 77 84 82 57 37 28 40 48 35 33 31 29 28 23 21 20 19 
51 25 22 29 21 19 16 16 24 28 24 25 19 31 54 39 26 34 75 125 157 92 21 40 110 97 61 145 194 177 83 45 31 44 71 77 54 39 30 33 38 39 49 55 42 24 24 39 79 89 52 35 38 46 54 44 38 40 69 72 88 99 104 129 97 51 102 106 107 113 129 74 86 82 70 55 40 43 38 37 38 40 36 40 37 33 41 40 48 49 39 41 44 43 40 34 40 54 35 31 25 44 67 56 74 131 110 37 24 26 26 26 41 83 94 91 87 81 77 69 
54 18 22 24 18 18 19 19 25 21 21 27 32 27 34 23 21 26 70 89 99 65 21 21 83 106 97 149 188 170 80 66 31 47 93 97 82 49 35 38 37 35 36 32 22 23 23 23 52 90 64 34 45 54 55 53 39 43 60 53 91 89 85 111 98 63 105 97 109 120 136 72 74 80 80 55 64 65 44 42 38 40 42 38 37 36 37 38 42 38 46 89 100 73 39 33 37 46 28 24 35 57 60 39 75 132 103 37 30 27 25 27 32 70 81 82 83 78 77 71 
26 14 19 24 21 19 21 19 27 21 25 33 41 32 33 24 20 19 48 81 107 105 41 18 37 66 100 119 139 114 59 73 42 69 88 68 85 60 66 84 69 41 33 31 30 27 24 23 28 36 25 32 55 67 68 51 35 39 41 42 71 74 75 90 96 64 95 85 97 113 130 79 74 71 77 79 114 112 58 37 34 34 39 48 45 34 35 37 36 36 57 100 113 88 42 33 30 24 24 27 51 105 110 65 53 99 80 42 46 40 34 26 28 30 29 25 34 29 26 25 
80 13 17 25 22 18 19 19 20 21 34 79 94 44 29 35 18 19 40 86 105 112 56 21 25 41 83 105 98 49 47 74 63 72 51 36 76 73 85 105 87 43 29 39 67 69 34 23 21 20 22 39 67 79 66 37 35 34 29 45 85 103 71 34 36 35 93 95 97 113 125 93 74 69 78 91 102 109 64 27 29 28 54 90 80 39 33 34 37 37 55 90 106 86 40 35 31 26 22 29 51 90 100 69 36 62 50 47 48 45 30 28 27 45 60 54 72 58 77 81 
74 21 22 22 26 24 17 16 17 22 38 85 101 48 24 26 18 22 29 63 90 95 43 20 24 60 87 116 82 39 38 64 67 49 22 23 54 58 75 92 79 58 46 48 84 95 44 19 21 20 20 44 81 95 65 35 37 36 33 62 101 114 80 22 20 25 81 82 102 112 119 105 68 62 66 90 96 100 63 30 29 32 60 100 89 45 33 34 32 36 36 59 81 64 39 43 41 30 39 46 47 67 77 52 33 41 45 72 74 46 27 20 23 38 67 73 89 74 70 75 
27 78 40 32 36 33 17 19 23 26 30 72 95 67 49 58 38 28 28 32 53 54 31 32 72 104 86 107 70 105 109 60 64 64 51 29 29 26 38 62 56 68 73 46 70 87 47 22 25 40 36 31 50 62 40 34 40 49 42 58 82 99 69 22 27 51 81 74 96 111 113 75 37 41 56 85 119 107 95 100 53 26 54 86 69 34 31 28 29 28 24 25 36 36 33 53 77 78 79 90 68 55 77 70 75 51 54 84 81 43 27 40 55 55 71 69 69 56 40 29 
91 79 31 63 86 72 22 39 45 28 24 49 73 89 63 49 41 26 28 29 31 31 41 57 104 131 109 104 59 121 151 92 95 104 67 28 26 23 24 33 35 65 100 57 49 69 37 23 52 56 38 22 23 27 32 39 71 80 44 34 48 66 50 42 92 112 94 101 110 109 111 45 25 57 101 112 137 125 139 179 125 26 29 47 61 52 40 40 41 27 22 24 28 26 27 40 88 111 94 100 92 88 110 101 104 61 61 82 94 50 44 86 73 76 93 82 64 65 69 85 
97 42 20 50 102 75 20 52 36 30 71 71 58 118 81 30 34 22 24 26 28 32 61 47 95 106 96 112 87 121 161 124 106 93 48 49 39 24 26 27 25 36 60 43 50 69 29 31 55 42 37 29 26 29 32 38 70 64 40 52 55 54 44 57 117 123 102 107 111 104 100 16 29 74 113 129 149 149 140 173 169 88 32 36 83 88 56 54 55 23 24 28 46 47 34 30 54 83 96 102 105 107 108 110 116 81 31 54 77 45 53 98 71 73 85 90 83 85 93 95 
42 92 51 31 93 88 23 36 26 82 133 134 90 103 54 18 22 29 59 79 56 31 62 47 69 71 87 112 122 137 154 138 110 83 72 90 70 28 27 26 23 27 51 69 48 44 25 30 36 52 66 46 28 30 29 28 34 36 45 70 72 64 44 51 122 152 88 96 117 108 80 52 33 75 104 110 136 172 175 172 179 146 39 44 91 105 70 47 50 23 27 47 84 82 38 29 42 89 111 101 100 115 111 119 114 97 42 34 45 36 49 90 68 81 85 85 85 88 95 82 
87 119 82 21 54 67 26 32 40 106 110 120 94 90 38 18 25 53 111 126 91 40 83 61 72 86 100 116 132 140 148 133 109 87 91 100 74 24 21 28 27 56 85 98 68 29 26 22 41 77 102 74 30 29 28 24 23 27 51 90 89 61 36 40 172 145 109 115 100 113 81 68 58 78 60 63 64 104 144 173 179 157 56 45 89 109 87 45 51 22 33 79 111 109 53 34 46 90 106 107 89 93 92 107 92 98 75 75 87 76 42 77 63 75 87 81 77 79 86 93 
92 105 88 24 21 25 25 30 44 76 87 99 69 61 31 25 29 70 120 130 110 52 64 66 78 85 94 101 116 136 143 121 100 75 80 87 69 30 21 22 32 73 96 97 88 44 22 22 33 70 96 67 29 29 29 26 24 24 65 104 104 124 157 209 187 168 170 187 193 133 107 39 63 88 31 44 34 34 77 157 176 138 48 36 66 83 75 47 41 38 61 74 98 93 50 42 66 87 91 107 102 96 91 88 58 81 66 75 92 76 28 53 57 64 87 82 79 81 72 89 
60 96 76 30 27 26 39 34 36 34 61 81 55 36 39 33 32 59 100 110 90 50 54 73 74 70 73 72 89 115 125 92 65 62 55 45 43 32 27 29 27 46 67 88 96 57 22 22 24 30 52 42 33 34 37 66 44 23 116 122 94 186 228 227 194 157 170 180 191 181 172 71 62 93 29 45 33 24 39 107 128 75 26 49 78 81 59 68 83 88 96 90 92 92 66 62 87 82 74 79 95 101 101 87 62 58 34 45 67 54 48 97 111 94 74 62 68 80 79 77 
35 79 71 32 32 72 68 29 25 25 29 37 38 52 65 37 29 36 72 84 50 43 54 71 92 86 97 95 102 98 91 49 33 51 52 33 36 41 57 42 23 23 32 55 49 35 27 24 24 17 21 29 32 41 99 153 87 70 199 98 11 151 161 151 199 145 159 175 178 207 177 174 176 134 32 53 37 22 31 84 105 36 24 45 102 119 66 85 111 103 103 102 81 89 73 63 62 80 107 82 73 86 100 105 80 44 29 23 33 45 57 157 201 187 127 59 75 85 91 55 
37 51 42 35 52 93 53 25 24 29 36 32 37 67 62 40 31 28 30 32 30 34 66 78 73 89 104 110 114 112 91 38 48 75 68 43 39 48 54 30 32 76 105 65 34 26 24 22 23 24 22 25 28 44 118 133 65 179 227 129 18 172 185 73 130 146 172 193 194 150 175 211 150 186 128 37 25 19 22 48 62 28 22 42 99 128 60 58 76 85 97 94 47 76 64 57 62 86 104 88 57 61 99 113 66 36 46 37 28 39 37 142 214 211 152 90 116 96 81 43 
77 38 34 36 44 67 34 25 25 29 40 45 29 50 74 72 37 28 21 18 23 46 98 116 88 76 89 99 108 103 73 37 78 113 106 62 31 30 24 19 49 117 142 93 31 29 26 24 23 28 23 24 25 33 73 78 83 205 224 134 61 179 192 38 158 165 175 192 194 112 150 189 60 27 190 31 21 20 24 41 49 36 19 32 101 143 71 49 70 79 76 96 58 78 64 47 44 69 88 72 49 50 72 103 63 57 90 79 33 30 33 100 185 180 122 94 132 106 67 60 
114 53 39 38 33 42 65 70 34 29 55 57 38 76 118 115 53 32 23 18 28 57 94 111 90 72 87 97 99 88 61 36 82 108 116 101 43 30 30 24 62 112 126 92 29 27 27 35 65 69 40 27 22 19 37 73 88 207 215 60 76 153 155 118 179 162 180 185 188 129 154 149 32 94 238 118 44 20 36 50 62 49 24 61 122 152 75 55 94 98 64 94 69 55 47 34 32 35 46 39 43 53 80 123 88 92 115 99 40 27 26 50 109 111 113 146 141 156 107 83 
107 56 40 61 43 63 109 101 50 34 56 51 40 95 119 120 53 27 27 52 37 39 64 79 61 60 80 95 99 86 53 28 52 88 116 113 47 51 65 39 40 89 113 81 29 26 23 51 102 114 70 25 22 22 26 65 89 181 205 34 16 154 171 173 178 165 181 182 191 165 205 159 16 166 236 177 67 40 64 79 96 69 30 55 97 113 41 66 117 123 63 81 66 27 38 67 63 39 32 35 37 41 90 125 85 83 98 91 51 25 24 38 72 98 98 125 105 136 108 96 
95 50 45 74 67 70 75 86 65 32 49 55 78 93 95 84 47 34 32 101 70 38 72 83 96 71 60 76 73 54 30 23 27 54 98 93 38 49 46 29 24 39 60 47 35 59 67 84 88 107 71 23 26 38 35 55 89 115 181 145 24 129 147 144 147 167 180 187 193 191 163 175 8 131 225 191 51 55 92 100 96 72 25 23 69 87 51 56 105 125 63 56 53 48 55 50 54 71 50 29 32 37 67 87 74 53 76 81 62 64 53 44 81 112 99 65 73 88 82 112 
70 47 36 66 59 57 34 32 30 26 37 78 102 83 75 55 79 87 49 60 39 33 70 109 149 118 48 67 79 42 21 21 21 23 39 38 30 46 28 21 21 22 26 36 56 80 58 57 112 95 50 28 31 33 30 33 65 107 157 220 139 144 155 74 52 100 168 197 200 190 207 156 6 76 203 187 34 35 54 91 97 74 39 32 74 94 68 37 64 89 51 36 42 22 6 6 5 8 42 31 28 35 42 43 39 33 35 47 57 85 64 31 44 85 90 65 86 66 37 61 
65 35 30 33 35 55 28 19 15 24 44 79 92 88 97 85 76 107 76 31 33 33 69 125 159 147 62 61 84 47 24 24 21 24 25 19 25 28 22 21 23 26 35 68 80 35 19 46 153 185 69 34 32 28 22 26 29 135 152 217 231 229 163 59 59 48 62 145 200 202 210 152 8 53 192 184 147 34 40 60 103 110 62 39 80 78 44 41 43 88 97 47 25 9 4 4 5 5 12 29 30 49 79 69 35 32 30 30 43 63 38 42 29 33 43 40 64 47 26 29 
39 19 25 23 28 41 31 16 15 20 31 71 89 88 93 94 59 83 71 37 32 35 60 149 168 118 58 53 92 81 36 21 28 29 32 20 23 26 26 22 23 26 52 50 27 22 32 47 116 167 165 158 68 22 20 31 30 183 226 225 228 224 112 53 55 63 50 61 114 189 217 133 7 90 202 188 160 34 42 69 75 88 81 47 64 69 77 75 41 90 139 93 29 10 4 4 6 6 10 22 24 71 119 111 50 26 25 29 38 43 84 130 122 59 28 34 36 29 20 25 
76 14 19 26 26 55 67 24 18 18 27 65 85 80 91 96 63 31 55 55 29 31 39 146 165 104 51 67 118 117 63 19 22 24 21 25 48 57 57 26 21 25 53 33 23 14 20 39 90 179 187 182 121 24 19 31 37 119 197 224 220 203 69 54 54 59 60 55 64 76 160 72 5 125 208 188 145 34 52 89 84 68 102 87 95 105 105 114 74 95 137 89 37 15 5 4 6 8 13 26 27 69 102 109 60 26 26 29 29 35 106 141 142 99 39 29 37 30 25 54 
99 18 15 18 25 84 102 36 19 19 39 78 83 76 80 85 70 36 84 96 37 28 38 141 172 128 48 82 118 128 78 20 19 22 32 71 113 125 150 73 18 24 42 16 13 13 22 50 98 162 209 191 168 53 21 31 43 37 129 226 216 202 51 51 53 46 55 62 52 50 154 35 52 145 217 170 136 33 60 93 78 59 109 114 114 113 108 122 101 83 134 81 33 16 5 4 5 6 12 41 48 53 83 88 75 41 28 31 41 64 98 112 113 110 85 57 54 37 32 75 
87 39 25 19 21 74 97 32 26 30 61 114 98 76 87 87 76 44 83 103 48 38 45 110 130 102 41 54 98 113 63 26 22 26 36 147 159 181 200 157 16 18 25 12 6 4 17 39 133 157 179 188 181 127 29 42 89 69 62 203 231 197 64 41 46 56 54 48 51 44 124 41 129 180 216 232 210 32 33 49 37 64 99 112 101 83 87 97 108 85 81 49 22 19 11 11 11 9 20 26 27 40 62 81 76 40 31 47 72 88 91 101 112 152 158 118 103 59 34 64 
84 89 40 20 20 46 51 38 64 78 82 118 110 66 81 79 71 44 47 51 33 57 79 86 60 49 35 30 49 68 31 37 31 44 56 125 141 137 184 144 36 27 24 12 4 4 8 27 158 184 158 164 166 132 53 31 73 63 55 142 191 174 121 45 41 36 42 50 54 48 165 216 191 218 223 227 207 36 31 28 33 48 74 99 97 72 56 59 92 112 70 45 43 42 21 29 25 20 21 21 19 21 36 76 68 33 61 93 76 69 61 78 90 124 132 125 113 61 34 44 
48 81 38 48 25 19 17 30 87 157 184 142 67 72 99 62 35 24 26 25 23 28 74 76 49 51 31 29 32 36 28 36 39 61 67 157 151 137 157 151 65 38 18 16 11 4 6 9 77 136 168 124 114 66 37 27 42 39 41 32 26 95 89 45 52 52 53 56 54 74 141 218 227 230 221 211 200 43 35 36 37 36 44 67 94 81 45 44 66 88 60 122 221 230 207 176 122 43 37 25 21 24 23 41 50 29 68 104 71 75 85 76 99 90 91 118 83 35 32 29 
33 63 96 135 96 17 16 23 75 145 173 120 31 68 104 82 28 19 39 63 38 26 32 45 35 33 29 40 66 57 31 38 42 70 118 159 174 168 139 184 102 52 29 36 40 21 5 10 68 120 159 168 161 163 155 174 185 146 73 64 51 94 48 49 29 24 32 38 53 65 93 100 143 179 205 205 177 26 32 37 35 33 34 45 97 150 174 162 62 46 36 73 97 159 205 235 247 222 70 19 22 34 33 25 23 22 46 84 77 142 184 122 126 140 125 117 79 53 42 31 
34 72 107 129 109 26 18 27 45 75 109 102 109 100 103 97 50 37 84 113 86 33 22 26 24 28 30 62 103 97 43 34 34 52 146 151 144 138 144 154 77 59 51 96 106 61 16 24 84 130 158 180 165 134 103 120 137 168 153 134 117 93 70 65 97 65 64 58 41 46 62 77 77 74 75 122 132 29 39 34 51 56 30 56 200 248 245 120 32 118 121 82 28 9 8 52 116 170 131 19 36 72 77 46 27 18 30 58 83 133 180 157 114 128 173 137 74 69 62 38 
35 79 91 99 111 102 106 93 70 97 109 131 179 176 140 102 75 69 105 119 108 32 22 27 26 24 34 73 108 108 51 37 30 28 76 135 143 149 150 161 63 58 62 100 113 79 26 79 100 142 176 164 102 58 72 83 73 133 109 162 138 123 101 90 102 86 57 53 49 41 38 63 69 68 69 69 54 55 63 53 41 66 47 165 246 245 215 17 129 189 189 181 174 144 123 97 42 9 43 78 71 99 108 57 26 16 22 46 82 101 117 127 115 107 150 120 66 88 83 45 
40 117 96 96 150 175 175 142 96 92 96 108 146 147 129 98 87 95 114 105 108 69 48 113 107 46 32 54 84 84 40 29 32 51 76 139 121 126 143 124 62 72 72 87 99 76 48 79 106 121 114 98 67 48 52 69 106 111 120 133 167 114 125 101 94 101 77 60 61 48 39 47 69 68 68 69 69 63 54 65 133 115 148 234 190 243 168 8 114 149 169 182 184 190 178 162 190 152 115 10 126 201 123 55 26 24 45 69 81 86 106 125 126 90 103 95 74 116 130 89 
96 133 82 75 139 167 141 91 82 70 51 51 124 148 105 83 57 56 113 101 110 120 83 143 134 78 36 29 34 47 72 66 102 130 123 152 135 96 99 130 79 68 56 54 59 47 79 98 94 84 77 72 54 41 49 94 106 92 128 133 137 112 131 119 89 96 106 66 63 65 61 51 61 68 65 66 69 70 68 63 136 192 233 184 186 238 101 10 42 29 10 80 90 116 164 176 157 195 103 8 204 247 229 130 60 77 92 70 67 66 87 131 146 107 127 129 84 101 142 143 
134 106 88 94 122 141 138 107 94 88 62 46 111 135 121 79 35 38 94 103 76 138 90 124 103 47 30 38 40 100 112 88 113 90 113 128 156 157 179 165 119 72 51 42 36 36 100 110 103 90 72 69 63 53 75 106 86 93 98 108 129 117 125 120 105 77 102 78 45 65 67 62 52 63 67 68 68 69 69 66 127 235 237 118 212 220 32 188 232 232 205 111 7 7 11 48 91 119 15 86 242 247 248 235 107 110 95 89 104 77 68 92 133 126 124 128 91 67 122 159 
125 95 98 117 130 140 132 118 125 111 69 62 85 91 89 57 26 34 74 121 63 134 118 88 103 64 34 56 126 131 99 63 46 40 47 94 120 137 147 135 107 105 123 127 90 42 145 139 98 82 79 91 88 89 92 81 89 90 128 125 90 117 132 125 111 91 96 100 49 49 67 68 49 55 65 66 67 67 66 93 220 242 159 54 214 191 69 242 155 124 220 199 7 155 211 194 137 43 8 169 244 243 243 244 132 114 99 106 122 98 83 84 121 112 96 114 91 59 74 119 
125 97 78 108 123 139 137 117 123 130 77 56 35 43 61 46 28 34 56 126 81 127 131 94 117 81 85 115 104 111 110 66 107 85 39 92 85 92 118 108 135 172 124 119 132 90 118 129 92 98 96 100 104 76 70 77 97 109 136 117 107 95 107 109 134 102 93 120 63 46 56 59 57 44 62 58 50 47 55 206 244 200 23 45 199 161 120 243 88 13 222 171 56 235 186 194 236 206 13 205 240 219 185 245 194 97 95 81 99 83 92 104 120 99 77 99 83 58 62 99 
147 108 71 79 88 108 127 117 107 113 73 47 25 31 54 49 33 41 65 130 90 124 119 88 127 149 144 126 120 79 139 168 171 172 122 72 61 73 106 107 141 189 134 117 130 135 49 24 67 142 175 134 79 61 49 70 60 77 87 90 107 93 87 94 95 108 97 117 69 53 60 58 48 18 51 38 30 20 159 244 230 82 9 69 199 125 159 226 32 82 243 119 130 241 91 10 194 219 61 231 240 143 132 245 226 48 60 60 75 72 81 93 75 54 54 81 68 57 58 99 
141 120 95 62 69 100 116 166 141 108 97 75 52 74 92 91 70 56 69 120 90 106 98 118 131 110 104 109 97 130 176 143 145 123 110 59 71 78 96 103 97 159 120 113 121 132 92 78 46 54 139 126 69 29 39 39 17 47 44 48 56 63 57 71 97 83 95 107 100 84 68 42 26 8 28 29 12 107 236 242 161 12 8 121 201 83 185 198 6 147 241 55 181 225 24 28 226 174 139 234 224 55 88 244 241 80 46 49 55 58 59 63 50 45 49 73 60 47 52 103 
98 117 131 94 97 99 102 179 150 110 110 116 146 180 188 185 170 133 80 89 69 63 102 112 94 80 67 58 40 56 65 39 60 68 82 72 110 102 70 109 148 226 175 78 108 115 145 116 109 52 24 55 34 33 31 7 8 28 45 35 35 51 66 71 83 81 86 91 90 87 88 80 65 61 93 119 149 222 243 238 111 10 50 130 195 30 196 186 7 144 188 8 214 197 5 99 240 112 186 227 182 5 34 231 245 154 46 43 47 47 51 52 49 44 43 54 53 44 55 88 
68 105 133 125 111 96 99 175 143 106 103 127 184 211 214 212 210 194 130 62 52 79 102 83 54 40 29 16 21 22 9 9 11 45 59 65 122 122 105 128 139 145 120 74 105 101 155 136 117 109 57 9 9 8 7 8 14 45 49 34 39 25 33 54 65 77 78 78 84 89 86 71 100 159 224 240 242 240 222 236 224 105 87 138 183 7 160 225 87 5 6 32 235 173 6 155 222 48 215 225 169 6 11 192 246 210 47 48 50 47 61 57 54 44 41 44 45 44 45 62 
56 113 136 118 120 102 98 171 142 106 101 116 177 207 213 213 211 206 159 83 57 101 69 33 18 15 20 27 36 39 10 8 8 34 82 106 154 162 170 144 122 117 99 66 108 99 138 145 111 112 113 52 7 8 9 10 14 22 23 14 28 20 98 112 148 115 59 60 67 70 76 77 91 91 191 226 235 210 195 191 186 144 124 160 168 5 53 213 216 75 6 11 219 211 25 55 103 93 228 227 171 34 8 129 247 221 67 48 47 42 49 54 57 45 42 46 46 45 44 51 
47 115 125 109 131 109 94 169 144 113 98 113 161 194 204 212 210 204 166 95 56 46 19 15 19 36 40 47 46 46 29 24 55 66 90 100 198 209 172 141 100 94 90 38 95 97 128 141 100 98 110 90 58 11 6 7 9 9 13 9 51 115 223 219 228 237 212 140 80 50 57 62 70 148 217 213 173 155 169 154 144 163 143 182 149 5 5 81 221 201 15 5 132 239 171 8 4 140 228 218 164 105 5 52 234 228 128 56 44 42 39 39 45 41 43 46 47 46 44 45 
45 114 108 89 108 109 97 167 142 111 91 104 135 183 194 208 210 204 167 92 62 40 37 40 42 42 43 49 44 37 82 80 88 169 165 160 164 141 169 115 117 142 125 64 108 93 114 118 98 63 80 82 78 64 29 7 6 7 7 7 26 77 143 214 219 220 217 157 128 110 99 70 96 119 177 203 126 130 150 135 177 186 152 196 133 5 5 8 136 234 74 7 7 163 240 128 5 165 228 199 108 129 6 9 207 245 203 63 38 36 35 40 41 42 44 45 46 46 44 46 
60 115 85 55 63 85 96 167 141 107 92 89 111 173 193 204 209 204 171 100 78 51 46 50 57 67 61 64 57 56 116 92 88 145 179 193 206 197 201 218 215 149 169 80 132 88 82 102 117 60 50 64 79 73 113 116 24 8 8 5 6 11 24 102 228 228 215 160 133 117 132 97 122 182 214 161 109 111 120 68 118 178 155 204 105 102 103 82 130 237 76 7 7 21 208 212 21 181 224 182 91 136 36 104 203 243 242 155 45 32 35 45 48 45 45 46 63 100 96 81 
96 110 85 57 60 71 90 166 142 99 94 89 99 160 193 201 205 203 182 143 133 95 57 49 78 108 148 157 143 113 121 100 93 85 95 119 132 133 165 183 186 169 145 85 116 91 92 110 125 86 45 52 65 60 118 192 134 61 30 15 8 7 5 23 211 230 225 187 137 120 144 138 139 184 203 131 102 97 111 63 111 161 149 208 63 190 219 225 233 219 106 119 56 7 169 233 87 202 216 158 88 166 188 220 238 240 238 240 144 35 41 50 57 56 49 46 73 151 165 142 
109 98 97 80 82 76 86 167 145 91 92 92 98 151 186 197 200 198 191 180 178 141 68 57 114 144 171 176 173 152 120 100 81 87 88 91 88 68 73 82 74 107 66 73 91 85 95 123 128 98 51 61 67 61 117 191 146 104 101 80 56 33 14 54 154 234 176 154 118 138 165 182 182 186 173 105 89 80 154 194 220 208 174 202 27 49 81 127 164 157 168 220 207 175 198 217 134 217 207 127 97 167 180 196 220 238 241 217 129 45 46 47 57 57 59 61 63 125 167 160 
69 94 91 87 87 76 81 160 141 95 97 109 111 146 164 174 180 178 178 178 167 148 86 81 136 155 164 164 163 160 118 103 88 67 75 81 76 65 68 44 58 80 62 67 89 90 116 129 128 102 67 78 81 75 112 172 137 97 105 118 116 110 85 101 186 192 185 184 165 162 163 168 168 175 145 86 67 107 167 177 242 237 218 192 11 5 3 6 9 5 29 76 112 138 154 139 158 226 194 105 92 146 144 160 206 232 238 233 174 65 54 54 61 59 65 78 78 113 157 111 
45 93 90 87 86 80 85 133 113 85 93 106 117 128 125 133 137 144 150 151 150 136 96 106 141 145 148 149 152 150 119 104 106 87 70 62 86 82 53 30 38 54 54 67 93 105 115 119 119 87 83 83 84 84 101 147 127 95 102 124 137 141 139 148 188 153 183 172 176 178 143 123 131 170 120 58 46 83 144 182 232 225 216 184 7 5 4 6 9 7 6 8 7 4 3 9 160 233 190 91 86 140 157 123 183 224 227 213 216 154 68 74 77 65 67 79 87 116 136 71 
32 99 92 89 87 82 91 126 104 79 93 100 102 98 106 126 123 123 131 136 136 126 108 127 148 147 147 150 152 147 118 103 94 102 92 90 85 85 108 94 28 28 36 89 116 118 115 117 143 135 98 82 84 82 102 163 159 128 103 128 140 143 144 132 156 175 178 173 172 174 145 97 107 169 85 53 76 26 74 163 198 197 215 182 5 4 5 5 8 8 5 6 7 6 4 2 154 235 199 86 82 137 133 68 117 173 184 180 193 201 85 100 101 79 72 81 90 121 115 47 
39 100 94 88 84 76 89 128 106 78 92 99 94 89 98 124 129 127 124 120 117 116 117 140 147 145 148 149 150 145 118 92 108 91 71 82 98 102 76 92 44 29 69 92 112 122 118 149 171 174 141 99 98 97 129 159 160 157 126 126 134 135 128 91 115 177 181 180 177 142 139 91 110 160 77 74 172 190 131 117 132 142 215 181 5 4 5 5 8 8 6 5 7 8 8 5 158 224 213 91 84 126 100 44 44 64 95 92 141 198 181 126 103 86 91 104 148 149 78 41 
68 95 94 92 92 84 91 129 110 82 96 107 104 103 104 119 128 127 125 124 119 115 115 133 138 135 134 136 138 140 117 83 73 77 89 71 82 91 105 62 54 74 91 73 60 107 138 132 115 129 125 121 112 122 144 139 130 127 111 97 99 98 94 66 96 156 152 115 76 53 91 85 108 154 125 91 132 203 208 202 173 122 237 169 4 4 4 5 7 9 7 6 8 8 9 31 177 210 211 109 102 122 74 41 47 38 78 121 151 176 214 217 142 79 84 134 240 230 84 40 
